<svg width="80" height="80" viewBox="0 0 80 80" fill="none" xmlns="http://www.w3.org/2000/svg">
<path fill-rule="evenodd" clip-rule="evenodd" d="M35.8253 0.0461774C48.6187 0.849842 54.9044 14.6138 62.7198 24.757C70.2538 34.5349 81.6542 43.9567 78.9295 55.9889C76.2021 68.0332 62.4734 73.1041 50.8286 77.2685C41.0159 80.7777 30.4731 81.2438 21.1131 76.6652C11.8353 72.1267 5.66914 63.5931 2.68588 53.7184C-0.628143 42.7489 -1.69948 30.8422 4.32281 21.0885C11.2977 9.79205 22.5586 -0.787216 35.8253 0.0461774Z" fill="url(#paint0_linear)"/>
<path d="M43.5286 44.3138V46.3267H43.2282C41.8662 46.3467 40.778 46.7206 39.9635 47.4483C39.149 48.176 38.665 49.2075 38.5114 50.5428C39.2925 49.7216 40.2906 49.311 41.5057 49.311C42.7942 49.311 43.809 49.765 44.5501 50.6729C45.2978 51.5809 45.6717 52.7526 45.6717 54.188C45.6717 55.6701 45.2344 56.8719 44.3598 57.7932C43.4919 58.7078 42.3503 59.1652 40.9349 59.1652C39.4795 59.1652 38.2978 58.6277 37.3898 57.5528C36.4885 56.478 36.0378 55.0693 36.0378 53.3268V52.4956C36.0378 49.9385 36.6587 47.9357 37.9005 46.4869C39.149 45.0382 40.9416 44.3138 43.2783 44.3138H43.5286ZM40.9149 51.2738C40.3808 51.2738 39.8901 51.424 39.4427 51.7245C39.0021 52.0249 38.6783 52.4255 38.4713 52.9262V53.6672C38.4713 54.7488 38.6983 55.61 39.1523 56.251C39.6063 56.8852 40.1938 57.2023 40.9149 57.2023C41.6359 57.2023 42.2067 56.9319 42.6273 56.3912C43.0479 55.8504 43.2582 55.1394 43.2582 54.2581C43.2582 53.3768 43.0446 52.6591 42.6173 52.105C42.19 51.5509 41.6226 51.2738 40.9149 51.2738Z" fill="white"/>
<path d="M57.1182 52.826C57.1182 54.9224 56.7243 56.5047 55.9365 57.5729C55.1554 58.6344 53.9637 59.1652 52.3613 59.1652C50.7857 59.1652 49.5974 58.6478 48.7962 57.6129C48.0017 56.5714 47.5945 55.0325 47.5745 52.9963V50.4726C47.5745 48.3763 47.965 46.804 48.7461 45.7559C49.5339 44.7077 50.7323 44.1836 52.3413 44.1836C53.937 44.1836 55.1253 44.6943 55.9065 45.7158C56.6943 46.7373 57.0982 48.2661 57.1182 50.3024V52.826ZM54.6847 50.1021C54.6847 48.7335 54.4978 47.732 54.1239 47.0978C53.75 46.4569 53.1558 46.1364 52.3413 46.1364C51.5468 46.1364 50.9627 46.4402 50.5888 47.0477C50.2149 47.6486 50.018 48.5899 49.9979 49.8718V53.1765C49.9979 54.5385 50.1882 55.5533 50.5688 56.2209C50.9493 56.8886 51.5468 57.2224 52.3613 57.2224C53.1425 57.2224 53.72 56.9153 54.0938 56.301C54.4677 55.6801 54.6647 54.7121 54.6847 53.3969V50.1021Z" fill="white"/>
<defs>
<linearGradient id="paint0_linear" x1="39.6708" y1="0" x2="39.6708" y2="80" gradientUnits="userSpaceOnUse">
<stop stop-color="#15A1DD"/>
<stop offset="1" stop-color="#34C789"/>
</linearGradient>
</defs>
</svg>
