<svg width="80" height="80" viewBox="0 0 80 80" fill="none" xmlns="http://www.w3.org/2000/svg">
<path fill-rule="evenodd" clip-rule="evenodd" d="M37.6586 0.996323C43.3767 -0.00454069 49.6945 -0.917596 54.8379 1.7738C59.9774 4.46307 62.4323 10.3717 65.2574 15.4378C67.7954 19.989 68.5075 25.1449 70.5453 29.9409C73.009 35.739 80.1314 40.6814 78.5775 46.7866C77.0077 52.9541 67.7697 53.3471 63.4081 57.9817C59.4879 62.1472 58.8322 68.6696 54.4848 72.3871C49.7466 76.4387 43.8928 79.9892 37.6586 80C31.4238 80.0108 25.9921 75.9037 20.8042 72.4455C16.0309 69.2636 12.0107 65.2336 8.59379 60.6255C5.24965 56.1156 2.45052 51.2397 1.0486 45.8031C-0.373 40.2901 -0.102073 34.6177 0.425468 28.9489C1.00455 22.7263 -0.225113 15.1544 4.30174 10.8459C8.99048 6.3833 16.9423 9.15326 23.1502 7.32018C28.2741 5.80723 32.3961 1.91744 37.6586 0.996323Z" fill="url(#paint0_linear)"/>
<path d="M21.5454 40.5659V44H19.9395V34.7578H23.4751C24.5076 34.7578 25.3265 35.0265 25.9316 35.564C26.541 36.1014 26.8457 36.8123 26.8457 37.6968C26.8457 38.6024 26.5474 39.307 25.9507 39.8105C25.3582 40.3141 24.5267 40.5659 23.4561 40.5659H21.5454ZM21.5454 39.2773H23.4751C24.0464 39.2773 24.4823 39.144 24.7827 38.8774C25.0832 38.6066 25.2334 38.2173 25.2334 37.7095C25.2334 37.2101 25.0811 36.8123 24.7764 36.5161C24.4717 36.2157 24.0527 36.0612 23.5195 36.0527H21.5454V39.2773ZM31.0415 44.127C30.064 44.127 29.2705 43.8201 28.6611 43.2065C28.056 42.5887 27.7534 41.7677 27.7534 40.7437V40.5532C27.7534 39.8677 27.8846 39.2562 28.147 38.7188C28.4136 38.1771 28.786 37.756 29.2642 37.4556C29.7424 37.1551 30.2756 37.0049 30.8638 37.0049C31.799 37.0049 32.5205 37.3032 33.0283 37.8999C33.5404 38.4966 33.7964 39.3408 33.7964 40.4326V41.0547H29.3086C29.3551 41.6217 29.5435 42.0703 29.8735 42.4004C30.2078 42.7305 30.6268 42.8955 31.1304 42.8955C31.8371 42.8955 32.4126 42.6099 32.8569 42.0386L33.6885 42.832C33.4134 43.2425 33.0452 43.562 32.584 43.7905C32.127 44.0148 31.6128 44.127 31.0415 44.127ZM30.8574 38.2427C30.4342 38.2427 30.0915 38.3908 29.8291 38.687C29.571 38.9832 29.4059 39.3958 29.334 39.9248H32.2729V39.8105C32.2391 39.2943 32.1016 38.9049 31.8604 38.6426C31.6191 38.376 31.2848 38.2427 30.8574 38.2427ZM38.5952 38.541C38.3921 38.5072 38.1826 38.4902 37.9668 38.4902C37.2601 38.4902 36.784 38.7611 36.5386 39.3027V44H34.9961V37.1318H36.4688L36.5068 37.8999C36.8792 37.3032 37.3955 37.0049 38.0557 37.0049C38.2757 37.0049 38.4577 37.0345 38.6016 37.0938L38.5952 38.541ZM43.4194 42.1338C43.4194 41.8587 43.3052 41.6493 43.0767 41.5054C42.8524 41.3615 42.4779 41.2345 41.9531 41.1245C41.4284 41.0145 40.9904 40.8748 40.6392 40.7056C39.869 40.3332 39.4839 39.7936 39.4839 39.0869C39.4839 38.4945 39.7336 37.9993 40.2329 37.6016C40.7323 37.2038 41.367 37.0049 42.1372 37.0049C42.9582 37.0049 43.6204 37.208 44.124 37.6143C44.6318 38.0205 44.8857 38.5474 44.8857 39.1948H43.3433C43.3433 38.8986 43.2332 38.6532 43.0132 38.4585C42.7931 38.2596 42.5011 38.1602 42.1372 38.1602C41.7987 38.1602 41.5215 38.2384 41.3057 38.395C41.0941 38.5516 40.9883 38.7611 40.9883 39.0234C40.9883 39.2604 41.0877 39.4445 41.2866 39.5757C41.4855 39.7069 41.8875 39.8402 42.4927 39.9756C43.0978 40.1068 43.5718 40.2655 43.9146 40.4517C44.2616 40.6336 44.5176 40.8537 44.6826 41.1118C44.8519 41.37 44.9365 41.6831 44.9365 42.0513C44.9365 42.6691 44.6805 43.1706 44.1685 43.5557C43.6564 43.9365 42.9857 44.127 42.1562 44.127C41.5934 44.127 41.092 44.0254 40.6519 43.8223C40.2118 43.6191 39.869 43.3398 39.6235 42.9844C39.3781 42.6289 39.2554 42.2459 39.2554 41.8354H40.7534C40.7746 42.1994 40.9121 42.4808 41.166 42.6797C41.4199 42.8743 41.7563 42.9717 42.1753 42.9717C42.5815 42.9717 42.8905 42.8955 43.1021 42.7432C43.3136 42.5866 43.4194 42.3835 43.4194 42.1338ZM45.9966 40.5024C45.9966 39.8296 46.1299 39.2244 46.3965 38.687C46.6631 38.1453 47.0376 37.7306 47.52 37.4429C48.0024 37.1509 48.5568 37.0049 49.1831 37.0049C50.1099 37.0049 50.861 37.3032 51.4365 37.8999C52.0163 38.4966 52.3294 39.2879 52.376 40.2739L52.3823 40.6357C52.3823 41.3128 52.2511 41.918 51.9888 42.4512C51.7306 42.9844 51.3582 43.397 50.8716 43.689C50.3892 43.981 49.8306 44.127 49.1958 44.127C48.2267 44.127 47.4502 43.8053 46.8662 43.1621C46.2865 42.5146 45.9966 41.6535 45.9966 40.5786V40.5024ZM47.5391 40.6357C47.5391 41.3424 47.6851 41.8968 47.9771 42.2988C48.269 42.6966 48.6753 42.8955 49.1958 42.8955C49.7163 42.8955 50.1204 42.6924 50.4082 42.2861C50.7002 41.8799 50.8462 41.2853 50.8462 40.5024C50.8462 39.8084 50.696 39.2583 50.3955 38.8521C50.0993 38.4458 49.6951 38.2427 49.1831 38.2427C48.6795 38.2427 48.2796 38.4437 47.9834 38.8457C47.6872 39.2435 47.5391 39.8402 47.5391 40.6357ZM55.1182 37.1318L55.1626 37.9253C55.6704 37.3117 56.3369 37.0049 57.1621 37.0049C58.5924 37.0049 59.3203 37.8237 59.3457 39.4614V44H57.8032V39.5503C57.8032 39.1144 57.708 38.7928 57.5176 38.5854C57.3314 38.3739 57.0246 38.2681 56.5972 38.2681C55.9751 38.2681 55.5117 38.5495 55.207 39.1123V44H53.6646V37.1318H55.1182ZM65.0269 44C64.9591 43.8688 64.8999 43.6551 64.8491 43.3589C64.3582 43.8709 63.7573 44.127 63.0464 44.127C62.3566 44.127 61.7938 43.9302 61.3579 43.5366C60.922 43.1431 60.7041 42.6564 60.7041 42.0767C60.7041 41.3446 60.9749 40.7839 61.5166 40.3945C62.0625 40.001 62.8411 39.8042 63.8525 39.8042H64.7983V39.3535C64.7983 38.998 64.6989 38.7145 64.5 38.5029C64.3011 38.2871 63.9985 38.1792 63.5923 38.1792C63.241 38.1792 62.9533 38.2681 62.729 38.4458C62.5047 38.6193 62.3926 38.8415 62.3926 39.1123H60.8501C60.8501 38.7357 60.9749 38.3844 61.2246 38.0586C61.4743 37.7285 61.8128 37.4704 62.2402 37.2842C62.6719 37.098 63.1522 37.0049 63.6812 37.0049C64.4852 37.0049 65.1263 37.208 65.6045 37.6143C66.0827 38.0163 66.3281 38.5833 66.3408 39.3154V42.4131C66.3408 43.0309 66.4276 43.5239 66.6011 43.8921V44H65.0269ZM63.332 42.8892C63.6367 42.8892 63.9224 42.8151 64.189 42.667C64.4598 42.5189 64.6629 42.32 64.7983 42.0703V40.7754H63.9668C63.3955 40.7754 62.966 40.8748 62.6782 41.0737C62.3905 41.2726 62.2466 41.554 62.2466 41.918C62.2466 42.2142 62.3439 42.4512 62.5386 42.6289C62.7375 42.8024 63.002 42.8892 63.332 42.8892ZM21.4312 59H19.8887V49.25H21.4312V59ZM24.7573 59H23.2148V52.1318H24.7573V59ZM23.1196 50.3481C23.1196 50.1112 23.1937 49.9144 23.3418 49.7578C23.4941 49.6012 23.71 49.5229 23.9893 49.5229C24.2686 49.5229 24.4844 49.6012 24.6367 49.7578C24.7891 49.9144 24.8652 50.1112 24.8652 50.3481C24.8652 50.5809 24.7891 50.7756 24.6367 50.9321C24.4844 51.0845 24.2686 51.1606 23.9893 51.1606C23.71 51.1606 23.4941 51.0845 23.3418 50.9321C23.1937 50.7756 23.1196 50.5809 23.1196 50.3481ZM28.0898 57.7686H31.7461V59H26.1729V57.9907L29.6577 53.376H26.2363V52.1318H31.6128V53.1094L28.0898 57.7686ZM37.0845 59C37.0168 58.8688 36.9575 58.6551 36.9067 58.3589C36.4159 58.8709 35.8149 59.127 35.104 59.127C34.4142 59.127 33.8514 58.9302 33.4155 58.5366C32.9797 58.1431 32.7617 57.6564 32.7617 57.0767C32.7617 56.3446 33.0326 55.7839 33.5742 55.3945C34.1201 55.001 34.8988 54.8042 35.9102 54.8042H36.856V54.3535C36.856 53.998 36.7565 53.7145 36.5576 53.5029C36.3587 53.2871 36.0562 53.1792 35.6499 53.1792C35.2987 53.1792 35.0109 53.2681 34.7866 53.4458C34.5623 53.6193 34.4502 53.8415 34.4502 54.1123H32.9077C32.9077 53.7357 33.0326 53.3844 33.2822 53.0586C33.5319 52.7285 33.8704 52.4704 34.2979 52.2842C34.7295 52.098 35.2098 52.0049 35.7388 52.0049C36.5428 52.0049 37.1839 52.208 37.6621 52.6143C38.1403 53.0163 38.3857 53.5833 38.3984 54.3154V57.4131C38.3984 58.0309 38.4852 58.5239 38.6587 58.8921V59H37.0845ZM35.3896 57.8892C35.6943 57.8892 35.98 57.8151 36.2466 57.667C36.5174 57.5189 36.7205 57.32 36.856 57.0703V55.7754H36.0244C35.4531 55.7754 35.0236 55.8748 34.7358 56.0737C34.4481 56.2726 34.3042 56.554 34.3042 56.918C34.3042 57.2142 34.4015 57.4512 34.5962 57.6289C34.7951 57.8024 35.0596 57.8892 35.3896 57.8892ZM39.7251 55.5151C39.7251 54.4572 39.9705 53.6087 40.4614 52.9697C40.9523 52.3265 41.6104 52.0049 42.4355 52.0049C43.1634 52.0049 43.7516 52.2588 44.2002 52.7666V49.25H45.7427V59H44.3462L44.27 58.2891C43.8088 58.8477 43.193 59.127 42.4229 59.127C41.6188 59.127 40.9671 58.8032 40.4678 58.1558C39.9727 57.5083 39.7251 56.6281 39.7251 55.5151ZM41.2676 55.6484C41.2676 56.3467 41.4009 56.8926 41.6675 57.2861C41.9383 57.6755 42.3213 57.8701 42.8164 57.8701C43.4469 57.8701 43.9082 57.5887 44.2002 57.0259V54.0933C43.9167 53.5431 43.4596 53.2681 42.8291 53.2681C42.3298 53.2681 41.9447 53.467 41.6738 53.8647C41.403 54.2583 41.2676 54.8529 41.2676 55.6484ZM47.063 55.5024C47.063 54.8296 47.1963 54.2244 47.4629 53.687C47.7295 53.1453 48.104 52.7306 48.5864 52.4429C49.0688 52.1509 49.6232 52.0049 50.2495 52.0049C51.1763 52.0049 51.9274 52.3032 52.5029 52.8999C53.0827 53.4966 53.3958 54.2879 53.4424 55.2739L53.4487 55.6357C53.4487 56.3128 53.3175 56.918 53.0552 57.4512C52.797 57.9844 52.4246 58.397 51.938 58.689C51.4556 58.981 50.897 59.127 50.2622 59.127C49.2931 59.127 48.5166 58.8053 47.9326 58.1621C47.3529 57.5146 47.063 56.6535 47.063 55.5786V55.5024ZM48.6055 55.6357C48.6055 56.3424 48.7515 56.8968 49.0435 57.2988C49.3354 57.6966 49.7417 57.8955 50.2622 57.8955C50.7827 57.8955 51.1868 57.6924 51.4746 57.2861C51.7666 56.8799 51.9126 56.2853 51.9126 55.5024C51.9126 54.8084 51.7624 54.2583 51.4619 53.8521C51.1657 53.4458 50.7616 53.2427 50.2495 53.2427C49.7459 53.2427 49.346 53.4437 49.0498 53.8457C48.7536 54.2435 48.6055 54.8402 48.6055 55.6357Z" fill="white"/>
<defs>
<linearGradient id="paint0_linear" x1="39.3985" y1="0" x2="39.3985" y2="80" gradientUnits="userSpaceOnUse">
<stop stop-color="#FC9C2A"/>
<stop offset="1" stop-color="#FD4C7E"/>
</linearGradient>
</defs>
</svg>
