<svg width="310" height="455" viewBox="0 0 310 455" fill="none" xmlns="http://www.w3.org/2000/svg">
<rect x="0.5" y="0.5" width="309" height="451" rx="7.5" fill="white" stroke="#E5E5E5"/>
<path d="M130.062 396.148C130.026 396.94 129.812 397.641 129.422 398.25C129.031 398.854 128.482 399.323 127.773 399.656C127.07 399.99 126.266 400.156 125.359 400.156C123.865 400.156 122.688 399.669 121.828 398.695C120.969 397.721 120.539 396.346 120.539 394.57V394.008C120.539 392.893 120.732 391.919 121.117 391.086C121.508 390.247 122.068 389.602 122.797 389.148C123.526 388.69 124.37 388.461 125.328 388.461C126.708 388.461 127.818 388.826 128.656 389.555C129.495 390.279 129.971 391.279 130.086 392.555H127.352C127.331 391.862 127.156 391.365 126.828 391.062C126.5 390.76 126 390.609 125.328 390.609C124.646 390.609 124.146 390.865 123.828 391.375C123.51 391.885 123.344 392.701 123.328 393.82V394.625C123.328 395.839 123.479 396.706 123.781 397.227C124.089 397.747 124.615 398.008 125.359 398.008C125.99 398.008 126.471 397.859 126.805 397.562C127.138 397.266 127.315 396.794 127.336 396.148H130.062ZM130.906 395.695C130.906 394.852 131.07 394.102 131.398 393.445C131.727 392.784 132.198 392.276 132.812 391.922C133.427 391.568 134.148 391.391 134.977 391.391C136.242 391.391 137.24 391.784 137.969 392.57C138.698 393.352 139.062 394.417 139.062 395.766V395.859C139.062 397.177 138.695 398.224 137.961 399C137.232 399.771 136.242 400.156 134.992 400.156C133.789 400.156 132.823 399.797 132.094 399.078C131.365 398.354 130.971 397.375 130.914 396.141L130.906 395.695ZM133.539 395.859C133.539 396.641 133.661 397.214 133.906 397.578C134.151 397.943 134.513 398.125 134.992 398.125C135.93 398.125 136.409 397.404 136.43 395.961V395.695C136.43 394.18 135.945 393.422 134.977 393.422C134.096 393.422 133.62 394.076 133.547 395.383L133.539 395.859ZM142.641 391.547L142.727 392.539C143.31 391.773 144.115 391.391 145.141 391.391C146.021 391.391 146.677 391.654 147.109 392.18C147.547 392.706 147.773 393.497 147.789 394.555V400H145.148V394.664C145.148 394.237 145.062 393.924 144.891 393.727C144.719 393.523 144.406 393.422 143.953 393.422C143.438 393.422 143.055 393.625 142.805 394.031V400H140.172V391.547H142.641ZM152.32 389.445V391.547H153.711V393.375H152.32V397.242C152.32 397.56 152.378 397.781 152.492 397.906C152.607 398.031 152.833 398.094 153.172 398.094C153.432 398.094 153.651 398.078 153.828 398.047V399.93C153.354 400.081 152.859 400.156 152.344 400.156C151.438 400.156 150.768 399.943 150.336 399.516C149.904 399.089 149.688 398.44 149.688 397.57V393.375H148.609V391.547H149.688V389.445H152.32ZM159.867 393.93L159 393.867C158.172 393.867 157.641 394.128 157.406 394.648V400H154.773V391.547H157.242L157.328 392.633C157.771 391.805 158.388 391.391 159.18 391.391C159.461 391.391 159.706 391.422 159.914 391.484L159.867 393.93ZM165.344 400C165.25 399.828 165.167 399.576 165.094 399.242C164.609 399.852 163.932 400.156 163.062 400.156C162.266 400.156 161.589 399.917 161.031 399.438C160.474 398.953 160.195 398.346 160.195 397.617C160.195 396.701 160.534 396.008 161.211 395.539C161.888 395.07 162.872 394.836 164.164 394.836H164.977V394.391C164.977 393.615 164.641 393.227 163.969 393.227C163.344 393.227 163.031 393.534 163.031 394.148H160.398C160.398 393.331 160.745 392.667 161.438 392.156C162.135 391.646 163.023 391.391 164.102 391.391C165.18 391.391 166.031 391.654 166.656 392.18C167.281 392.706 167.602 393.427 167.617 394.344V398.086C167.628 398.862 167.747 399.456 167.977 399.867V400H165.344ZM163.695 398.281C164.023 398.281 164.294 398.211 164.508 398.07C164.727 397.93 164.883 397.771 164.977 397.594V396.242H164.211C163.294 396.242 162.836 396.654 162.836 397.477C162.836 397.716 162.917 397.911 163.078 398.062C163.24 398.208 163.445 398.281 163.695 398.281ZM172.148 389.445V391.547H173.539V393.375H172.148V397.242C172.148 397.56 172.206 397.781 172.32 397.906C172.435 398.031 172.661 398.094 173 398.094C173.26 398.094 173.479 398.078 173.656 398.047V399.93C173.182 400.081 172.688 400.156 172.172 400.156C171.266 400.156 170.596 399.943 170.164 399.516C169.732 399.089 169.516 398.44 169.516 397.57V393.375H168.438V391.547H169.516V389.445H172.148ZM179.344 400C179.25 399.828 179.167 399.576 179.094 399.242C178.609 399.852 177.932 400.156 177.062 400.156C176.266 400.156 175.589 399.917 175.031 399.438C174.474 398.953 174.195 398.346 174.195 397.617C174.195 396.701 174.534 396.008 175.211 395.539C175.888 395.07 176.872 394.836 178.164 394.836H178.977V394.391C178.977 393.615 178.641 393.227 177.969 393.227C177.344 393.227 177.031 393.534 177.031 394.148H174.398C174.398 393.331 174.745 392.667 175.438 392.156C176.135 391.646 177.023 391.391 178.102 391.391C179.18 391.391 180.031 391.654 180.656 392.18C181.281 392.706 181.602 393.427 181.617 394.344V398.086C181.628 398.862 181.747 399.456 181.977 399.867V400H179.344ZM177.695 398.281C178.023 398.281 178.294 398.211 178.508 398.07C178.727 397.93 178.883 397.771 178.977 397.594V396.242H178.211C177.294 396.242 176.836 396.654 176.836 397.477C176.836 397.716 176.917 397.911 177.078 398.062C177.24 398.208 177.445 398.281 177.695 398.281ZM188.195 393.93L187.328 393.867C186.5 393.867 185.969 394.128 185.734 394.648V400H183.102V391.547H185.57L185.656 392.633C186.099 391.805 186.716 391.391 187.508 391.391C187.789 391.391 188.034 391.422 188.242 391.484L188.195 393.93Z" fill="#AB49CE"/>
<rect x="89.5" y="375.5" width="130" height="38" rx="7.5" stroke="#AB49CE"/>
<path d="M75.5322 231.604H71.3555V236H70.043V226.047H76.209V227.127H71.3555V230.531H75.5322V231.604ZM77.0977 232.233C77.0977 231.509 77.2389 230.857 77.5215 230.278C77.8086 229.7 78.2051 229.253 78.7109 228.938C79.2214 228.624 79.8024 228.467 80.4541 228.467C81.4613 228.467 82.2747 228.815 82.8945 229.513C83.5189 230.21 83.8311 231.137 83.8311 232.295V232.384C83.8311 233.104 83.6921 233.751 83.4141 234.325C83.1406 234.895 82.7464 235.339 82.2314 235.658C81.721 235.977 81.1331 236.137 80.4678 236.137C79.4652 236.137 78.6517 235.788 78.0273 235.091C77.4076 234.394 77.0977 233.471 77.0977 232.322V232.233ZM78.3691 232.384C78.3691 233.204 78.5583 233.863 78.9365 234.359C79.3193 234.856 79.8298 235.104 80.4678 235.104C81.1104 235.104 81.6208 234.854 81.999 234.353C82.3773 233.847 82.5664 233.14 82.5664 232.233C82.5664 231.422 82.3727 230.766 81.9854 230.265C81.6025 229.759 81.0921 229.506 80.4541 229.506C79.8298 229.506 79.3262 229.754 78.9434 230.251C78.5605 230.748 78.3691 231.459 78.3691 232.384ZM88.9922 229.738C88.8008 229.706 88.5934 229.69 88.3701 229.69C87.5407 229.69 86.9779 230.044 86.6816 230.75V236H85.417V228.604H86.6475L86.668 229.458C87.0827 228.797 87.6706 228.467 88.4316 228.467C88.6777 228.467 88.8646 228.499 88.9922 228.562V229.738ZM93.2988 232.233C93.2988 231.509 93.4401 230.857 93.7227 230.278C94.0098 229.7 94.4062 229.253 94.9121 228.938C95.4225 228.624 96.0036 228.467 96.6553 228.467C97.6624 228.467 98.4759 228.815 99.0957 229.513C99.7201 230.21 100.032 231.137 100.032 232.295V232.384C100.032 233.104 99.8932 233.751 99.6152 234.325C99.3418 234.895 98.9476 235.339 98.4326 235.658C97.9222 235.977 97.3343 236.137 96.6689 236.137C95.6663 236.137 94.8529 235.788 94.2285 235.091C93.6087 234.394 93.2988 233.471 93.2988 232.322V232.233ZM94.5703 232.384C94.5703 233.204 94.7594 233.863 95.1377 234.359C95.5205 234.856 96.0309 235.104 96.6689 235.104C97.3115 235.104 97.8219 234.854 98.2002 234.353C98.5785 233.847 98.7676 233.14 98.7676 232.233C98.7676 231.422 98.5739 230.766 98.1865 230.265C97.8037 229.759 97.2933 229.506 96.6553 229.506C96.0309 229.506 95.5273 229.754 95.1445 230.251C94.7617 230.748 94.5703 231.459 94.5703 232.384ZM105.193 229.738C105.002 229.706 104.795 229.69 104.571 229.69C103.742 229.69 103.179 230.044 102.883 230.75V236H101.618V228.604H102.849L102.869 229.458C103.284 228.797 103.872 228.467 104.633 228.467C104.879 228.467 105.066 228.499 105.193 228.562V229.738ZM105.925 232.24C105.925 231.087 106.191 230.171 106.725 229.492C107.258 228.809 107.964 228.467 108.844 228.467C109.746 228.467 110.45 228.786 110.956 229.424L111.018 228.604H112.173V235.822C112.173 236.779 111.888 237.534 111.318 238.085C110.753 238.636 109.992 238.912 109.035 238.912C108.502 238.912 107.98 238.798 107.47 238.57C106.959 238.342 106.57 238.03 106.301 237.634L106.957 236.875C107.499 237.545 108.162 237.88 108.946 237.88C109.562 237.88 110.04 237.707 110.382 237.36C110.728 237.014 110.901 236.526 110.901 235.897V235.262C110.396 235.845 109.705 236.137 108.83 236.137C107.964 236.137 107.262 235.788 106.725 235.091C106.191 234.394 105.925 233.443 105.925 232.24ZM107.196 232.384C107.196 233.218 107.367 233.874 107.709 234.353C108.051 234.826 108.529 235.063 109.145 235.063C109.942 235.063 110.528 234.701 110.901 233.977V230.6C110.514 229.893 109.933 229.54 109.158 229.54C108.543 229.54 108.062 229.779 107.716 230.258C107.369 230.736 107.196 231.445 107.196 232.384ZM118.653 236C118.58 235.854 118.521 235.594 118.476 235.221C117.888 235.831 117.186 236.137 116.37 236.137C115.641 236.137 115.042 235.932 114.572 235.521C114.107 235.107 113.875 234.583 113.875 233.949C113.875 233.179 114.167 232.582 114.75 232.158C115.338 231.73 116.163 231.516 117.225 231.516H118.455V230.935C118.455 230.493 118.323 230.142 118.059 229.882C117.794 229.618 117.405 229.485 116.89 229.485C116.438 229.485 116.06 229.599 115.755 229.827C115.45 230.055 115.297 230.331 115.297 230.654H114.025C114.025 230.285 114.155 229.93 114.415 229.588C114.679 229.242 115.035 228.968 115.481 228.768C115.933 228.567 116.427 228.467 116.965 228.467C117.817 228.467 118.485 228.681 118.968 229.109C119.451 229.533 119.701 230.119 119.72 230.866V234.271C119.72 234.95 119.806 235.49 119.979 235.891V236H118.653ZM116.555 235.036C116.951 235.036 117.327 234.934 117.683 234.729C118.038 234.523 118.296 234.257 118.455 233.929V232.411H117.464C115.914 232.411 115.14 232.865 115.14 233.771C115.14 234.168 115.272 234.478 115.536 234.701C115.8 234.924 116.14 235.036 116.555 235.036ZM122.898 228.604L122.939 229.533C123.505 228.822 124.243 228.467 125.154 228.467C126.717 228.467 127.506 229.349 127.52 231.112V236H126.255V231.105C126.25 230.572 126.127 230.178 125.886 229.923C125.649 229.668 125.277 229.54 124.771 229.54C124.361 229.54 124.001 229.649 123.691 229.868C123.382 230.087 123.14 230.374 122.967 230.729V236H121.702V228.604H122.898ZM130.801 236H129.536V228.604H130.801V236ZM129.434 226.642C129.434 226.437 129.495 226.263 129.618 226.122C129.746 225.981 129.933 225.91 130.179 225.91C130.425 225.91 130.612 225.981 130.739 226.122C130.867 226.263 130.931 226.437 130.931 226.642C130.931 226.847 130.867 227.018 130.739 227.154C130.612 227.291 130.425 227.359 130.179 227.359C129.933 227.359 129.746 227.291 129.618 227.154C129.495 227.018 129.434 226.847 129.434 226.642ZM134.021 234.968H138.348V236H132.476V235.07L136.557 229.649H132.537V228.604H138.143V229.499L134.021 234.968ZM141.15 236H139.886V228.604H141.15V236ZM139.783 226.642C139.783 226.437 139.845 226.263 139.968 226.122C140.095 225.981 140.282 225.91 140.528 225.91C140.774 225.91 140.961 225.981 141.089 226.122C141.216 226.263 141.28 226.437 141.28 226.642C141.28 226.847 141.216 227.018 141.089 227.154C140.961 227.291 140.774 227.359 140.528 227.359C140.282 227.359 140.095 227.291 139.968 227.154C139.845 227.018 139.783 226.847 139.783 226.642ZM144.377 228.604L144.418 229.533C144.983 228.822 145.721 228.467 146.633 228.467C148.196 228.467 148.984 229.349 148.998 231.112V236H147.733V231.105C147.729 230.572 147.606 230.178 147.364 229.923C147.127 229.668 146.756 229.54 146.25 229.54C145.84 229.54 145.48 229.649 145.17 229.868C144.86 230.087 144.618 230.374 144.445 230.729V236H143.181V228.604H144.377ZM150.604 232.24C150.604 231.087 150.871 230.171 151.404 229.492C151.938 228.809 152.644 228.467 153.523 228.467C154.426 228.467 155.13 228.786 155.636 229.424L155.697 228.604H156.853V235.822C156.853 236.779 156.568 237.534 155.998 238.085C155.433 238.636 154.672 238.912 153.715 238.912C153.182 238.912 152.66 238.798 152.149 238.57C151.639 238.342 151.249 238.03 150.98 237.634L151.637 236.875C152.179 237.545 152.842 237.88 153.626 237.88C154.241 237.88 154.72 237.707 155.062 237.36C155.408 237.014 155.581 236.526 155.581 235.897V235.262C155.075 235.845 154.385 236.137 153.51 236.137C152.644 236.137 151.942 235.788 151.404 235.091C150.871 234.394 150.604 233.443 150.604 232.24ZM151.876 232.384C151.876 233.218 152.047 233.874 152.389 234.353C152.73 234.826 153.209 235.063 153.824 235.063C154.622 235.063 155.207 234.701 155.581 233.977V230.6C155.194 229.893 154.613 229.54 153.838 229.54C153.223 229.54 152.742 229.779 152.396 230.258C152.049 230.736 151.876 231.445 151.876 232.384ZM165.309 236.137C164.306 236.137 163.49 235.809 162.861 235.152C162.232 234.492 161.918 233.61 161.918 232.507V232.274C161.918 231.541 162.057 230.887 162.335 230.312C162.618 229.734 163.009 229.283 163.511 228.959C164.017 228.631 164.563 228.467 165.151 228.467C166.113 228.467 166.86 228.784 167.394 229.417C167.927 230.05 168.193 230.957 168.193 232.138V232.664H163.183C163.201 233.393 163.413 233.983 163.818 234.435C164.229 234.881 164.748 235.104 165.377 235.104C165.824 235.104 166.202 235.013 166.512 234.831C166.822 234.649 167.093 234.407 167.325 234.106L168.098 234.708C167.478 235.66 166.548 236.137 165.309 236.137ZM165.151 229.506C164.641 229.506 164.213 229.693 163.866 230.066C163.52 230.436 163.306 230.955 163.224 231.625H166.929V231.529C166.892 230.887 166.719 230.39 166.409 230.039C166.099 229.684 165.68 229.506 165.151 229.506ZM172.008 234.284L173.84 228.604H175.132L172.479 236H171.516L168.836 228.604H170.128L172.008 234.284ZM179.322 236.137C178.32 236.137 177.504 235.809 176.875 235.152C176.246 234.492 175.932 233.61 175.932 232.507V232.274C175.932 231.541 176.071 230.887 176.349 230.312C176.631 229.734 177.023 229.283 177.524 228.959C178.03 228.631 178.577 228.467 179.165 228.467C180.127 228.467 180.874 228.784 181.407 229.417C181.94 230.05 182.207 230.957 182.207 232.138V232.664H177.196C177.215 233.393 177.426 233.983 177.832 234.435C178.242 234.881 178.762 235.104 179.391 235.104C179.837 235.104 180.215 235.013 180.525 234.831C180.835 234.649 181.106 234.407 181.339 234.106L182.111 234.708C181.492 235.66 180.562 236.137 179.322 236.137ZM179.165 229.506C178.655 229.506 178.226 229.693 177.88 230.066C177.534 230.436 177.319 230.955 177.237 231.625H180.942V231.529C180.906 230.887 180.733 230.39 180.423 230.039C180.113 229.684 179.694 229.506 179.165 229.506ZM187.252 229.738C187.061 229.706 186.853 229.69 186.63 229.69C185.8 229.69 185.238 230.044 184.941 230.75V236H183.677V228.604H184.907L184.928 229.458C185.342 228.797 185.93 228.467 186.691 228.467C186.938 228.467 187.124 228.499 187.252 228.562V229.738ZM190.964 234.147L192.687 228.604H194.04L191.066 237.142C190.606 238.372 189.875 238.987 188.872 238.987L188.633 238.967L188.161 238.878V237.853L188.503 237.88C188.931 237.88 189.264 237.793 189.501 237.62C189.743 237.447 189.941 237.13 190.096 236.67L190.376 235.918L187.737 228.604H189.118L190.964 234.147ZM201.614 235.104C202.065 235.104 202.46 234.968 202.797 234.694C203.134 234.421 203.321 234.079 203.357 233.669H204.554C204.531 234.093 204.385 234.496 204.116 234.879C203.847 235.262 203.487 235.567 203.036 235.795C202.59 236.023 202.116 236.137 201.614 236.137C200.607 236.137 199.805 235.802 199.208 235.132C198.616 234.457 198.319 233.537 198.319 232.37V232.158C198.319 231.438 198.451 230.798 198.716 230.237C198.98 229.677 199.358 229.242 199.851 228.932C200.347 228.622 200.933 228.467 201.607 228.467C202.437 228.467 203.125 228.715 203.672 229.212C204.223 229.709 204.517 230.354 204.554 231.146H203.357C203.321 230.668 203.139 230.276 202.811 229.971C202.487 229.661 202.086 229.506 201.607 229.506C200.965 229.506 200.466 229.738 200.11 230.203C199.759 230.663 199.584 231.331 199.584 232.206V232.445C199.584 233.298 199.759 233.954 200.11 234.414C200.461 234.874 200.963 235.104 201.614 235.104ZM205.641 232.233C205.641 231.509 205.782 230.857 206.064 230.278C206.352 229.7 206.748 229.253 207.254 228.938C207.764 228.624 208.345 228.467 208.997 228.467C210.004 228.467 210.818 228.815 211.438 229.513C212.062 230.21 212.374 231.137 212.374 232.295V232.384C212.374 233.104 212.235 233.751 211.957 234.325C211.684 234.895 211.289 235.339 210.774 235.658C210.264 235.977 209.676 236.137 209.011 236.137C208.008 236.137 207.195 235.788 206.57 235.091C205.951 234.394 205.641 233.471 205.641 232.322V232.233ZM206.912 232.384C206.912 233.204 207.101 233.863 207.479 234.359C207.862 234.856 208.373 235.104 209.011 235.104C209.653 235.104 210.164 234.854 210.542 234.353C210.92 233.847 211.109 233.14 211.109 232.233C211.109 231.422 210.916 230.766 210.528 230.265C210.146 229.759 209.635 229.506 208.997 229.506C208.373 229.506 207.869 229.754 207.486 230.251C207.104 230.748 206.912 231.459 206.912 232.384ZM217.535 229.738C217.344 229.706 217.136 229.69 216.913 229.69C216.084 229.69 215.521 230.044 215.225 230.75V236H213.96V228.604H215.19L215.211 229.458C215.626 228.797 216.214 228.467 216.975 228.467C217.221 228.467 217.408 228.499 217.535 228.562V229.738ZM219.9 228.604L219.941 229.533C220.507 228.822 221.245 228.467 222.156 228.467C223.719 228.467 224.508 229.349 224.521 231.112V236H223.257V231.105C223.252 230.572 223.129 230.178 222.888 229.923C222.651 229.668 222.279 229.54 221.773 229.54C221.363 229.54 221.003 229.649 220.693 229.868C220.383 230.087 220.142 230.374 219.969 230.729V236H218.704V228.604H219.9ZM229.498 236.137C228.495 236.137 227.68 235.809 227.051 235.152C226.422 234.492 226.107 233.61 226.107 232.507V232.274C226.107 231.541 226.246 230.887 226.524 230.312C226.807 229.734 227.199 229.283 227.7 228.959C228.206 228.631 228.753 228.467 229.341 228.467C230.302 228.467 231.05 228.784 231.583 229.417C232.116 230.05 232.383 230.957 232.383 232.138V232.664H227.372C227.39 233.393 227.602 233.983 228.008 234.435C228.418 234.881 228.938 235.104 229.566 235.104C230.013 235.104 230.391 235.013 230.701 234.831C231.011 234.649 231.282 234.407 231.515 234.106L232.287 234.708C231.667 235.66 230.738 236.137 229.498 236.137ZM229.341 229.506C228.83 229.506 228.402 229.693 228.056 230.066C227.709 230.436 227.495 230.955 227.413 231.625H231.118V231.529C231.082 230.887 230.909 230.39 230.599 230.039C230.289 229.684 229.869 229.506 229.341 229.506ZM237.428 229.738C237.236 229.706 237.029 229.69 236.806 229.69C235.976 229.69 235.413 230.044 235.117 230.75V236H233.853V228.604H235.083L235.104 229.458C235.518 228.797 236.106 228.467 236.867 228.467C237.113 228.467 237.3 228.499 237.428 228.562V229.738ZM120.923 248.233C120.923 247.509 121.064 246.857 121.347 246.278C121.634 245.7 122.03 245.253 122.536 244.938C123.047 244.624 123.628 244.467 124.279 244.467C125.286 244.467 126.1 244.815 126.72 245.513C127.344 246.21 127.656 247.137 127.656 248.295V248.384C127.656 249.104 127.517 249.751 127.239 250.325C126.966 250.895 126.572 251.339 126.057 251.658C125.546 251.977 124.958 252.137 124.293 252.137C123.29 252.137 122.477 251.788 121.853 251.091C121.233 250.394 120.923 249.471 120.923 248.322V248.233ZM122.194 248.384C122.194 249.204 122.383 249.863 122.762 250.359C123.145 250.856 123.655 251.104 124.293 251.104C124.936 251.104 125.446 250.854 125.824 250.353C126.202 249.847 126.392 249.14 126.392 248.233C126.392 247.422 126.198 246.766 125.811 246.265C125.428 245.759 124.917 245.506 124.279 245.506C123.655 245.506 123.151 245.754 122.769 246.251C122.386 246.748 122.194 247.459 122.194 248.384ZM129.864 252V245.581H128.695V244.604H129.864V243.845C129.864 243.052 130.076 242.439 130.5 242.006C130.924 241.573 131.523 241.356 132.298 241.356C132.59 241.356 132.879 241.395 133.166 241.473L133.098 242.498C132.883 242.457 132.656 242.437 132.414 242.437C132.004 242.437 131.687 242.557 131.464 242.799C131.241 243.036 131.129 243.378 131.129 243.824V244.604H132.708V245.581H131.129V252H129.864ZM140.002 250.147L141.725 244.604H143.078L140.104 253.142C139.644 254.372 138.913 254.987 137.91 254.987L137.671 254.967L137.199 254.878V253.853L137.541 253.88C137.969 253.88 138.302 253.793 138.539 253.62C138.781 253.447 138.979 253.13 139.134 252.67L139.414 251.918L136.775 244.604H138.156L140.002 250.147ZM143.769 248.233C143.769 247.509 143.91 246.857 144.192 246.278C144.479 245.7 144.876 245.253 145.382 244.938C145.892 244.624 146.473 244.467 147.125 244.467C148.132 244.467 148.946 244.815 149.565 245.513C150.19 246.21 150.502 247.137 150.502 248.295V248.384C150.502 249.104 150.363 249.751 150.085 250.325C149.812 250.895 149.417 251.339 148.902 251.658C148.392 251.977 147.804 252.137 147.139 252.137C146.136 252.137 145.323 251.788 144.698 251.091C144.078 250.394 143.769 249.471 143.769 248.322V248.233ZM145.04 248.384C145.04 249.204 145.229 249.863 145.607 250.359C145.99 250.856 146.501 251.104 147.139 251.104C147.781 251.104 148.292 250.854 148.67 250.353C149.048 249.847 149.237 249.14 149.237 248.233C149.237 247.422 149.044 246.766 148.656 246.265C148.273 245.759 147.763 245.506 147.125 245.506C146.501 245.506 145.997 245.754 145.614 246.251C145.231 246.748 145.04 247.459 145.04 248.384ZM156.654 251.269C156.162 251.847 155.44 252.137 154.487 252.137C153.699 252.137 153.097 251.909 152.683 251.453C152.272 250.993 152.065 250.314 152.061 249.416V244.604H153.325V249.382C153.325 250.503 153.781 251.063 154.692 251.063C155.659 251.063 156.301 250.703 156.62 249.983V244.604H157.885V252H156.682L156.654 251.269ZM163.388 245.738C163.196 245.706 162.989 245.69 162.766 245.69C161.936 245.69 161.373 246.044 161.077 246.75V252H159.812V244.604H161.043L161.063 245.458C161.478 244.797 162.066 244.467 162.827 244.467C163.073 244.467 163.26 244.499 163.388 244.562V245.738ZM169.403 252H168.139V241.5H169.403V252ZM172.808 252H171.543V244.604H172.808V252ZM171.44 242.642C171.44 242.437 171.502 242.263 171.625 242.122C171.753 241.981 171.939 241.91 172.186 241.91C172.432 241.91 172.618 241.981 172.746 242.122C172.874 242.263 172.938 242.437 172.938 242.642C172.938 242.847 172.874 243.018 172.746 243.154C172.618 243.291 172.432 243.359 172.186 243.359C171.939 243.359 171.753 243.291 171.625 243.154C171.502 243.018 171.44 242.847 171.44 242.642ZM175.46 252V245.581H174.291V244.604H175.46V243.845C175.46 243.052 175.672 242.439 176.096 242.006C176.52 241.573 177.119 241.356 177.894 241.356C178.185 241.356 178.475 241.395 178.762 241.473L178.693 242.498C178.479 242.457 178.251 242.437 178.01 242.437C177.6 242.437 177.283 242.557 177.06 242.799C176.836 243.036 176.725 243.378 176.725 243.824V244.604H178.304V245.581H176.725V252H175.46ZM182.61 252.137C181.608 252.137 180.792 251.809 180.163 251.152C179.534 250.492 179.22 249.61 179.22 248.507V248.274C179.22 247.541 179.359 246.887 179.637 246.312C179.919 245.734 180.311 245.283 180.812 244.959C181.318 244.631 181.865 244.467 182.453 244.467C183.415 244.467 184.162 244.784 184.695 245.417C185.229 246.05 185.495 246.957 185.495 248.138V248.664H180.484C180.503 249.393 180.715 249.983 181.12 250.435C181.53 250.881 182.05 251.104 182.679 251.104C183.125 251.104 183.504 251.013 183.813 250.831C184.123 250.649 184.395 250.407 184.627 250.106L185.399 250.708C184.78 251.66 183.85 252.137 182.61 252.137ZM182.453 245.506C181.943 245.506 181.514 245.693 181.168 246.066C180.822 246.436 180.607 246.955 180.525 247.625H184.23V247.529C184.194 246.887 184.021 246.39 183.711 246.039C183.401 245.684 182.982 245.506 182.453 245.506ZM186.992 251.337C186.992 251.118 187.056 250.936 187.184 250.79C187.316 250.644 187.512 250.571 187.771 250.571C188.031 250.571 188.227 250.644 188.359 250.79C188.496 250.936 188.564 251.118 188.564 251.337C188.564 251.547 188.496 251.722 188.359 251.863C188.227 252.005 188.031 252.075 187.771 252.075C187.512 252.075 187.316 252.005 187.184 251.863C187.056 251.722 186.992 251.547 186.992 251.337Z" fill="black"/>
<path d="M71.8291 271.557H67.7412V274.619H72.5195V276H66.0117V266.047H72.4717V267.441H67.7412V270.189H71.8291V271.557ZM76.1973 273.895L77.7627 268.604H79.4785L76.915 276H75.4727L72.8887 268.604H74.6113L76.1973 273.895ZM83.6826 276.137C82.6299 276.137 81.7754 275.806 81.1191 275.146C80.4674 274.48 80.1416 273.596 80.1416 272.493V272.288C80.1416 271.55 80.2829 270.891 80.5654 270.312C80.8525 269.729 81.2536 269.276 81.7686 268.952C82.2835 268.629 82.8577 268.467 83.4912 268.467C84.4984 268.467 85.2754 268.788 85.8223 269.431C86.3737 270.073 86.6494 270.982 86.6494 272.158V272.828H81.8164C81.8665 273.439 82.0693 273.922 82.4248 274.277C82.7848 274.633 83.236 274.811 83.7783 274.811C84.5394 274.811 85.1592 274.503 85.6377 273.888L86.5332 274.742C86.237 275.184 85.8405 275.528 85.3438 275.774C84.8516 276.016 84.2979 276.137 83.6826 276.137ZM83.4844 269.8C83.0286 269.8 82.6595 269.959 82.377 270.278C82.099 270.597 81.9212 271.042 81.8438 271.611H85.0088V271.488C84.9723 270.932 84.8242 270.513 84.5645 270.23C84.3047 269.943 83.9447 269.8 83.4844 269.8ZM91.8174 270.121C91.5986 270.085 91.373 270.066 91.1406 270.066C90.3796 270.066 89.8669 270.358 89.6025 270.941V276H87.9414V268.604H89.5273L89.5684 269.431C89.9694 268.788 90.5254 268.467 91.2363 268.467C91.4733 268.467 91.6693 268.499 91.8242 268.562L91.8174 270.121ZM95.5771 273.621L97.0811 268.604H98.8516L95.9121 277.121C95.4609 278.365 94.6953 278.987 93.6152 278.987C93.3737 278.987 93.1071 278.946 92.8154 278.864V277.579L93.1299 277.6C93.5492 277.6 93.8636 277.522 94.0732 277.367C94.2874 277.217 94.4561 276.962 94.5791 276.602L94.8184 275.966L92.2207 268.604H94.0117L95.5771 273.621ZM101.894 266.806V268.604H103.199V269.834H101.894V273.963C101.894 274.245 101.948 274.451 102.058 274.578C102.172 274.701 102.372 274.763 102.659 274.763C102.851 274.763 103.044 274.74 103.24 274.694V275.979C102.862 276.084 102.497 276.137 102.146 276.137C100.87 276.137 100.232 275.433 100.232 274.024V269.834H99.0156V268.604H100.232V266.806H101.894ZM106.111 269.41C106.654 268.781 107.34 268.467 108.169 268.467C109.746 268.467 110.546 269.367 110.568 271.167V276H108.907V271.229C108.907 270.718 108.796 270.358 108.572 270.148C108.354 269.934 108.03 269.827 107.602 269.827C106.936 269.827 106.439 270.123 106.111 270.716V276H104.45V265.5H106.111V269.41ZM114.021 276H112.359V268.604H114.021V276ZM112.257 266.683C112.257 266.427 112.337 266.215 112.496 266.047C112.66 265.878 112.893 265.794 113.193 265.794C113.494 265.794 113.727 265.878 113.891 266.047C114.055 266.215 114.137 266.427 114.137 266.683C114.137 266.933 114.055 267.143 113.891 267.312C113.727 267.476 113.494 267.558 113.193 267.558C112.893 267.558 112.66 267.476 112.496 267.312C112.337 267.143 112.257 266.933 112.257 266.683ZM117.377 268.604L117.425 269.458C117.972 268.797 118.689 268.467 119.578 268.467C121.118 268.467 121.902 269.349 121.93 271.112V276H120.269V271.208C120.269 270.739 120.166 270.392 119.961 270.169C119.76 269.941 119.43 269.827 118.97 269.827C118.3 269.827 117.801 270.13 117.473 270.736V276H115.812V268.604H117.377ZM123.338 272.247C123.338 271.099 123.607 270.183 124.145 269.499C124.687 268.811 125.405 268.467 126.298 268.467C127.141 268.467 127.804 268.761 128.287 269.349L128.362 268.604H129.859V275.774C129.859 276.745 129.556 277.511 128.95 278.071C128.349 278.632 127.535 278.912 126.51 278.912C125.967 278.912 125.437 278.798 124.917 278.57C124.402 278.347 124.01 278.053 123.741 277.688L124.527 276.69C125.038 277.297 125.667 277.6 126.414 277.6C126.965 277.6 127.401 277.449 127.72 277.148C128.039 276.852 128.198 276.415 128.198 275.836V275.337C127.72 275.87 127.082 276.137 126.284 276.137C125.418 276.137 124.71 275.793 124.158 275.104C123.611 274.416 123.338 273.464 123.338 272.247ZM124.992 272.391C124.992 273.133 125.143 273.719 125.443 274.147C125.749 274.571 126.17 274.783 126.708 274.783C127.378 274.783 127.875 274.496 128.198 273.922V270.668C127.884 270.107 127.392 269.827 126.722 269.827C126.175 269.827 125.749 270.044 125.443 270.477C125.143 270.91 124.992 271.548 124.992 272.391ZM136.825 276H135.164V268.604H136.825V276ZM135.062 266.683C135.062 266.427 135.141 266.215 135.301 266.047C135.465 265.878 135.697 265.794 135.998 265.794C136.299 265.794 136.531 265.878 136.695 266.047C136.859 266.215 136.941 266.427 136.941 266.683C136.941 266.933 136.859 267.143 136.695 267.312C136.531 267.476 136.299 267.558 135.998 267.558C135.697 267.558 135.465 267.476 135.301 267.312C135.141 267.143 135.062 266.933 135.062 266.683ZM140.182 268.604L140.229 269.458C140.776 268.797 141.494 268.467 142.383 268.467C143.923 268.467 144.707 269.349 144.734 271.112V276H143.073V271.208C143.073 270.739 142.971 270.392 142.766 270.169C142.565 269.941 142.235 269.827 141.774 269.827C141.104 269.827 140.605 270.13 140.277 270.736V276H138.616V268.604H140.182ZM151.81 272.302V276H150.08V266.047H153.888C155 266.047 155.882 266.336 156.533 266.915C157.189 267.494 157.518 268.259 157.518 269.212C157.518 270.187 157.196 270.946 156.554 271.488C155.916 272.031 155.02 272.302 153.867 272.302H151.81ZM151.81 270.914H153.888C154.503 270.914 154.972 270.771 155.296 270.483C155.619 270.192 155.781 269.772 155.781 269.226C155.781 268.688 155.617 268.259 155.289 267.94C154.961 267.617 154.51 267.451 153.936 267.441H151.81V270.914ZM162.036 276.137C160.983 276.137 160.129 275.806 159.473 275.146C158.821 274.48 158.495 273.596 158.495 272.493V272.288C158.495 271.55 158.636 270.891 158.919 270.312C159.206 269.729 159.607 269.276 160.122 268.952C160.637 268.629 161.211 268.467 161.845 268.467C162.852 268.467 163.629 268.788 164.176 269.431C164.727 270.073 165.003 270.982 165.003 272.158V272.828H160.17C160.22 273.439 160.423 273.922 160.778 274.277C161.138 274.633 161.59 274.811 162.132 274.811C162.893 274.811 163.513 274.503 163.991 273.888L164.887 274.742C164.59 275.184 164.194 275.528 163.697 275.774C163.205 276.016 162.651 276.137 162.036 276.137ZM161.838 269.8C161.382 269.8 161.013 269.959 160.73 270.278C160.452 270.597 160.275 271.042 160.197 271.611H163.362V271.488C163.326 270.932 163.178 270.513 162.918 270.23C162.658 269.943 162.298 269.8 161.838 269.8ZM170.171 270.121C169.952 270.085 169.727 270.066 169.494 270.066C168.733 270.066 168.22 270.358 167.956 270.941V276H166.295V268.604H167.881L167.922 269.431C168.323 268.788 168.879 268.467 169.59 268.467C169.827 268.467 170.023 268.499 170.178 268.562L170.171 270.121ZM175.366 273.99C175.366 273.694 175.243 273.468 174.997 273.313C174.756 273.159 174.352 273.022 173.787 272.903C173.222 272.785 172.75 272.634 172.372 272.452C171.543 272.051 171.128 271.47 171.128 270.709C171.128 270.071 171.397 269.538 171.935 269.109C172.472 268.681 173.156 268.467 173.985 268.467C174.869 268.467 175.583 268.686 176.125 269.123C176.672 269.561 176.945 270.128 176.945 270.825H175.284C175.284 270.506 175.166 270.242 174.929 270.032C174.692 269.818 174.377 269.711 173.985 269.711C173.621 269.711 173.322 269.795 173.09 269.964C172.862 270.132 172.748 270.358 172.748 270.641C172.748 270.896 172.855 271.094 173.069 271.235C173.284 271.377 173.716 271.52 174.368 271.666C175.02 271.807 175.53 271.978 175.899 272.179C176.273 272.375 176.549 272.612 176.727 272.89C176.909 273.168 177 273.505 177 273.901C177 274.567 176.724 275.107 176.173 275.521C175.621 275.932 174.899 276.137 174.006 276.137C173.4 276.137 172.86 276.027 172.386 275.809C171.912 275.59 171.543 275.289 171.278 274.906C171.014 274.523 170.882 274.111 170.882 273.669H172.495C172.518 274.061 172.666 274.364 172.939 274.578C173.213 274.788 173.575 274.893 174.026 274.893C174.464 274.893 174.797 274.811 175.024 274.646C175.252 274.478 175.366 274.259 175.366 273.99ZM178.142 272.233C178.142 271.509 178.285 270.857 178.572 270.278C178.859 269.695 179.263 269.248 179.782 268.938C180.302 268.624 180.899 268.467 181.573 268.467C182.571 268.467 183.38 268.788 184 269.431C184.624 270.073 184.962 270.925 185.012 271.987L185.019 272.377C185.019 273.106 184.877 273.758 184.595 274.332C184.317 274.906 183.916 275.351 183.392 275.665C182.872 275.979 182.271 276.137 181.587 276.137C180.543 276.137 179.707 275.79 179.078 275.098C178.454 274.4 178.142 273.473 178.142 272.315V272.233ZM179.803 272.377C179.803 273.138 179.96 273.735 180.274 274.168C180.589 274.596 181.026 274.811 181.587 274.811C182.147 274.811 182.583 274.592 182.893 274.154C183.207 273.717 183.364 273.076 183.364 272.233C183.364 271.486 183.202 270.894 182.879 270.456C182.56 270.019 182.125 269.8 181.573 269.8C181.031 269.8 180.6 270.016 180.281 270.449C179.962 270.878 179.803 271.52 179.803 272.377ZM187.965 268.604L188.013 269.458C188.56 268.797 189.277 268.467 190.166 268.467C191.706 268.467 192.49 269.349 192.518 271.112V276H190.856V271.208C190.856 270.739 190.754 270.392 190.549 270.169C190.348 269.941 190.018 269.827 189.558 269.827C188.888 269.827 188.389 270.13 188.061 270.736V276H186.399V268.604H187.965ZM198.636 276C198.563 275.859 198.499 275.629 198.444 275.31C197.916 275.861 197.269 276.137 196.503 276.137C195.76 276.137 195.154 275.925 194.685 275.501C194.215 275.077 193.98 274.553 193.98 273.929C193.98 273.14 194.272 272.536 194.855 272.117C195.443 271.693 196.282 271.481 197.371 271.481H198.39V270.996C198.39 270.613 198.283 270.308 198.068 270.08C197.854 269.848 197.528 269.731 197.091 269.731C196.713 269.731 196.403 269.827 196.161 270.019C195.92 270.205 195.799 270.445 195.799 270.736H194.138C194.138 270.331 194.272 269.952 194.541 269.602C194.81 269.246 195.174 268.968 195.635 268.768C196.1 268.567 196.617 268.467 197.187 268.467C198.052 268.467 198.743 268.686 199.258 269.123C199.773 269.556 200.037 270.167 200.051 270.955V274.291C200.051 274.956 200.144 275.487 200.331 275.884V276H198.636ZM196.811 274.804C197.139 274.804 197.446 274.724 197.733 274.564C198.025 274.405 198.244 274.191 198.39 273.922V272.527H197.494C196.879 272.527 196.416 272.634 196.106 272.849C195.797 273.063 195.642 273.366 195.642 273.758C195.642 274.077 195.746 274.332 195.956 274.523C196.17 274.71 196.455 274.804 196.811 274.804ZM203.558 276H201.896V265.5H203.558V276ZM205.608 278.242L204.713 277.709C204.977 277.294 205.157 276.932 205.253 276.622C205.353 276.317 205.406 276.005 205.41 275.686V274.394H206.907L206.9 275.59C206.896 276.073 206.773 276.556 206.531 277.039C206.294 277.527 205.987 277.928 205.608 278.242ZM218.412 272.377C218.412 273.521 218.152 274.435 217.633 275.118C217.113 275.797 216.416 276.137 215.541 276.137C214.73 276.137 214.08 275.87 213.593 275.337V278.844H211.932V268.604H213.463L213.531 269.355C214.019 268.763 214.682 268.467 215.521 268.467C216.423 268.467 217.129 268.804 217.64 269.479C218.155 270.148 218.412 271.08 218.412 272.274V272.377ZM216.758 272.233C216.758 271.495 216.61 270.91 216.313 270.477C216.022 270.044 215.603 269.827 215.056 269.827C214.377 269.827 213.889 270.107 213.593 270.668V273.949C213.894 274.523 214.386 274.811 215.069 274.811C215.598 274.811 216.01 274.599 216.307 274.175C216.607 273.746 216.758 273.099 216.758 272.233ZM221.591 276H219.93V265.5H221.591V276ZM227.887 275.275C227.399 275.85 226.706 276.137 225.809 276.137C225.007 276.137 224.398 275.902 223.983 275.433C223.573 274.963 223.368 274.284 223.368 273.396V268.604H225.029V273.375C225.029 274.314 225.419 274.783 226.198 274.783C227.005 274.783 227.549 274.494 227.832 273.915V268.604H229.493V276H227.928L227.887 275.275ZM235.331 273.99C235.331 273.694 235.208 273.468 234.962 273.313C234.72 273.159 234.317 273.022 233.752 272.903C233.187 272.785 232.715 272.634 232.337 272.452C231.507 272.051 231.093 271.47 231.093 270.709C231.093 270.071 231.362 269.538 231.899 269.109C232.437 268.681 233.121 268.467 233.95 268.467C234.834 268.467 235.548 268.686 236.09 269.123C236.637 269.561 236.91 270.128 236.91 270.825H235.249C235.249 270.506 235.131 270.242 234.894 270.032C234.657 269.818 234.342 269.711 233.95 269.711C233.586 269.711 233.287 269.795 233.055 269.964C232.827 270.132 232.713 270.358 232.713 270.641C232.713 270.896 232.82 271.094 233.034 271.235C233.248 271.377 233.681 271.52 234.333 271.666C234.985 271.807 235.495 271.978 235.864 272.179C236.238 272.375 236.514 272.612 236.691 272.89C236.874 273.168 236.965 273.505 236.965 273.901C236.965 274.567 236.689 275.107 236.138 275.521C235.586 275.932 234.864 276.137 233.971 276.137C233.365 276.137 232.825 276.027 232.351 275.809C231.877 275.59 231.507 275.289 231.243 274.906C230.979 274.523 230.847 274.111 230.847 273.669H232.46C232.483 274.061 232.631 274.364 232.904 274.578C233.178 274.788 233.54 274.893 233.991 274.893C234.429 274.893 234.761 274.811 234.989 274.646C235.217 274.478 235.331 274.259 235.331 273.99Z" fill="black"/>
<path d="M126.664 185.027C126.664 189.116 125.896 192.202 124.359 194.285C122.836 196.355 120.512 197.391 117.387 197.391C114.314 197.391 111.996 196.382 110.434 194.363C108.884 192.332 108.09 189.331 108.051 185.359V180.438C108.051 176.349 108.812 173.283 110.336 171.238C111.872 169.194 114.21 168.172 117.348 168.172C120.46 168.172 122.777 169.168 124.301 171.16C125.837 173.152 126.625 176.134 126.664 180.105V185.027ZM121.918 179.715C121.918 177.046 121.553 175.092 120.824 173.855C120.095 172.605 118.936 171.98 117.348 171.98C115.798 171.98 114.659 172.573 113.93 173.758C113.201 174.93 112.816 176.766 112.777 179.266V185.711C112.777 188.367 113.148 190.346 113.891 191.648C114.633 192.951 115.798 193.602 117.387 193.602C118.91 193.602 120.036 193.003 120.766 191.805C121.495 190.594 121.879 188.706 121.918 186.141V179.715ZM149.398 185.027C149.398 189.116 148.63 192.202 147.094 194.285C145.57 196.355 143.246 197.391 140.121 197.391C137.048 197.391 134.73 196.382 133.168 194.363C131.618 192.332 130.824 189.331 130.785 185.359V180.438C130.785 176.349 131.547 173.283 133.07 171.238C134.607 169.194 136.944 168.172 140.082 168.172C143.194 168.172 145.512 169.168 147.035 171.16C148.572 173.152 149.359 176.134 149.398 180.105V185.027ZM144.652 179.715C144.652 177.046 144.288 175.092 143.559 173.855C142.829 172.605 141.671 171.98 140.082 171.98C138.533 171.98 137.393 172.573 136.664 173.758C135.935 174.93 135.551 176.766 135.512 179.266V185.711C135.512 188.367 135.883 190.346 136.625 191.648C137.367 192.951 138.533 193.602 140.121 193.602C141.645 193.602 142.771 193.003 143.5 191.805C144.229 190.594 144.613 188.706 144.652 186.141V179.715ZM154.574 203.406L152.016 201.883C152.771 200.698 153.285 199.663 153.559 198.777C153.845 197.905 153.995 197.013 154.008 196.102V192.41H158.285L158.266 195.828C158.253 197.208 157.901 198.589 157.211 199.969C156.534 201.362 155.655 202.508 154.574 203.406Z" fill="black"/>
<path d="M173.266 175.211C173.266 176.846 172.958 178.081 172.344 178.914C171.734 179.742 170.805 180.156 169.555 180.156C168.326 180.156 167.398 179.753 166.773 178.945C166.154 178.133 165.836 176.932 165.82 175.344V173.375C165.82 171.74 166.125 170.513 166.734 169.695C167.349 168.878 168.284 168.469 169.539 168.469C170.784 168.469 171.711 168.867 172.32 169.664C172.935 170.461 173.25 171.654 173.266 173.242V175.211ZM171.367 173.086C171.367 172.018 171.221 171.237 170.93 170.742C170.638 170.242 170.174 169.992 169.539 169.992C168.919 169.992 168.464 170.229 168.172 170.703C167.88 171.172 167.727 171.906 167.711 172.906V175.484C167.711 176.547 167.859 177.339 168.156 177.859C168.453 178.38 168.919 178.641 169.555 178.641C170.164 178.641 170.615 178.401 170.906 177.922C171.198 177.438 171.352 176.682 171.367 175.656V173.086ZM182.359 175.211C182.359 176.846 182.052 178.081 181.438 178.914C180.828 179.742 179.898 180.156 178.648 180.156C177.419 180.156 176.492 179.753 175.867 178.945C175.247 178.133 174.93 176.932 174.914 175.344V173.375C174.914 171.74 175.219 170.513 175.828 169.695C176.443 168.878 177.378 168.469 178.633 168.469C179.878 168.469 180.805 168.867 181.414 169.664C182.029 170.461 182.344 171.654 182.359 173.242V175.211ZM180.461 173.086C180.461 172.018 180.315 171.237 180.023 170.742C179.732 170.242 179.268 169.992 178.633 169.992C178.013 169.992 177.557 170.229 177.266 170.703C176.974 171.172 176.82 171.906 176.805 172.906V175.484C176.805 176.547 176.953 177.339 177.25 177.859C177.547 178.38 178.013 178.641 178.648 178.641C179.258 178.641 179.708 178.401 180 177.922C180.292 177.438 180.445 176.682 180.461 175.656V173.086ZM166.508 199.977H165.016L169.492 187.625H170.984L166.508 199.977ZM174.086 190.547L174.141 191.43C174.734 190.737 175.547 190.391 176.578 190.391C177.708 190.391 178.482 190.823 178.898 191.688C179.513 190.823 180.378 190.391 181.492 190.391C182.424 190.391 183.117 190.648 183.57 191.164C184.029 191.68 184.263 192.44 184.273 193.445V199H182.375V193.5C182.375 192.964 182.258 192.57 182.023 192.32C181.789 192.07 181.401 191.945 180.859 191.945C180.427 191.945 180.073 192.062 179.797 192.297C179.526 192.526 179.336 192.828 179.227 193.203L179.234 199H177.336V193.438C177.31 192.443 176.802 191.945 175.812 191.945C175.052 191.945 174.513 192.255 174.195 192.875V199H172.297V190.547H174.086ZM189.945 199.156C188.742 199.156 187.766 198.779 187.016 198.023C186.271 197.263 185.898 196.253 185.898 194.992V194.758C185.898 193.914 186.06 193.161 186.383 192.5C186.711 191.833 187.169 191.315 187.758 190.945C188.346 190.576 189.003 190.391 189.727 190.391C190.878 190.391 191.766 190.758 192.391 191.492C193.021 192.227 193.336 193.266 193.336 194.609V195.375H187.812C187.87 196.073 188.102 196.625 188.508 197.031C188.919 197.438 189.435 197.641 190.055 197.641C190.924 197.641 191.633 197.289 192.18 196.586L193.203 197.562C192.865 198.068 192.411 198.461 191.844 198.742C191.281 199.018 190.648 199.156 189.945 199.156ZM189.719 191.914C189.198 191.914 188.776 192.096 188.453 192.461C188.135 192.826 187.932 193.333 187.844 193.984H191.461V193.844C191.419 193.208 191.25 192.729 190.953 192.406C190.656 192.078 190.245 191.914 189.719 191.914ZM192.281 189.164V189.25H190.758L189.586 188.031L188.422 189.25H186.914V189.148L189.031 186.992H190.148L192.281 189.164ZM199.555 196.703C199.555 196.365 199.414 196.107 199.133 195.93C198.857 195.753 198.396 195.596 197.75 195.461C197.104 195.326 196.565 195.154 196.133 194.945C195.185 194.487 194.711 193.823 194.711 192.953C194.711 192.224 195.018 191.615 195.633 191.125C196.247 190.635 197.029 190.391 197.977 190.391C198.987 190.391 199.802 190.641 200.422 191.141C201.047 191.641 201.359 192.289 201.359 193.086H199.461C199.461 192.721 199.326 192.419 199.055 192.18C198.784 191.935 198.424 191.812 197.977 191.812C197.56 191.812 197.219 191.909 196.953 192.102C196.693 192.294 196.562 192.552 196.562 192.875C196.562 193.167 196.685 193.393 196.93 193.555C197.174 193.716 197.669 193.88 198.414 194.047C199.159 194.208 199.742 194.404 200.164 194.633C200.591 194.857 200.906 195.128 201.109 195.445C201.318 195.763 201.422 196.148 201.422 196.602C201.422 197.362 201.107 197.979 200.477 198.453C199.846 198.922 199.021 199.156 198 199.156C197.307 199.156 196.69 199.031 196.148 198.781C195.607 198.531 195.185 198.188 194.883 197.75C194.581 197.312 194.43 196.841 194.43 196.336H196.273C196.299 196.784 196.469 197.13 196.781 197.375C197.094 197.615 197.508 197.734 198.023 197.734C198.523 197.734 198.904 197.641 199.164 197.453C199.424 197.26 199.555 197.01 199.555 196.703Z" fill="black"/>
<path d="M123.15 136.782H119.145V141H117.415V131.047H123.738V132.441H119.145V135.401H123.15V136.782ZM129.139 141C129.066 140.859 129.002 140.629 128.947 140.31C128.419 140.861 127.771 141.137 127.006 141.137C126.263 141.137 125.657 140.925 125.188 140.501C124.718 140.077 124.483 139.553 124.483 138.929C124.483 138.14 124.775 137.536 125.358 137.117C125.946 136.693 126.785 136.481 127.874 136.481H128.893V135.996C128.893 135.613 128.785 135.308 128.571 135.08C128.357 134.848 128.031 134.731 127.594 134.731C127.215 134.731 126.906 134.827 126.664 135.019C126.423 135.205 126.302 135.445 126.302 135.736H124.641C124.641 135.331 124.775 134.952 125.044 134.602C125.313 134.246 125.677 133.968 126.138 133.768C126.603 133.567 127.12 133.467 127.689 133.467C128.555 133.467 129.246 133.686 129.761 134.123C130.276 134.556 130.54 135.167 130.554 135.955V139.291C130.554 139.956 130.647 140.487 130.834 140.884V141H129.139ZM127.313 139.804C127.642 139.804 127.949 139.724 128.236 139.564C128.528 139.405 128.747 139.191 128.893 138.922V137.527H127.997C127.382 137.527 126.919 137.634 126.609 137.849C126.299 138.063 126.145 138.366 126.145 138.758C126.145 139.077 126.249 139.332 126.459 139.523C126.673 139.71 126.958 139.804 127.313 139.804ZM134.061 141H132.399V130.5H134.061V141ZM139.133 141.137C138.08 141.137 137.226 140.806 136.569 140.146C135.918 139.48 135.592 138.596 135.592 137.493V137.288C135.592 136.55 135.733 135.891 136.016 135.312C136.303 134.729 136.704 134.276 137.219 133.952C137.734 133.629 138.308 133.467 138.941 133.467C139.949 133.467 140.726 133.788 141.272 134.431C141.824 135.073 142.1 135.982 142.1 137.158V137.828H137.267C137.317 138.439 137.52 138.922 137.875 139.277C138.235 139.633 138.686 139.811 139.229 139.811C139.99 139.811 140.609 139.503 141.088 138.888L141.983 139.742C141.687 140.184 141.291 140.528 140.794 140.774C140.302 141.016 139.748 141.137 139.133 141.137ZM138.935 134.8C138.479 134.8 138.11 134.959 137.827 135.278C137.549 135.597 137.371 136.042 137.294 136.611H140.459V136.488C140.423 135.932 140.274 135.513 140.015 135.23C139.755 134.943 139.395 134.8 138.935 134.8ZM145.798 131.047L148.669 138.676L151.533 131.047H153.769V141H152.046V137.719L152.217 133.33L149.277 141H148.04L145.107 133.337L145.278 137.719V141H143.556V131.047H145.798ZM160.078 141C160.005 140.859 159.941 140.629 159.887 140.31C159.358 140.861 158.711 141.137 157.945 141.137C157.202 141.137 156.596 140.925 156.127 140.501C155.658 140.077 155.423 139.553 155.423 138.929C155.423 138.14 155.715 137.536 156.298 137.117C156.886 136.693 157.724 136.481 158.813 136.481H159.832V135.996C159.832 135.613 159.725 135.308 159.511 135.08C159.297 134.848 158.971 134.731 158.533 134.731C158.155 134.731 157.845 134.827 157.604 135.019C157.362 135.205 157.241 135.445 157.241 135.736H155.58C155.58 135.331 155.715 134.952 155.983 134.602C156.252 134.246 156.617 133.968 157.077 133.768C157.542 133.567 158.059 133.467 158.629 133.467C159.495 133.467 160.185 133.686 160.7 134.123C161.215 134.556 161.479 135.167 161.493 135.955V139.291C161.493 139.956 161.587 140.487 161.773 140.884V141H160.078ZM158.253 139.804C158.581 139.804 158.889 139.724 159.176 139.564C159.467 139.405 159.686 139.191 159.832 138.922V137.527H158.937C158.321 137.527 157.859 137.634 157.549 137.849C157.239 138.063 157.084 138.366 157.084 138.758C157.084 139.077 157.189 139.332 157.398 139.523C157.613 139.71 157.897 139.804 158.253 139.804ZM165 141H163.339V133.604H165V141ZM163.236 131.683C163.236 131.427 163.316 131.215 163.476 131.047C163.64 130.878 163.872 130.794 164.173 130.794C164.474 130.794 164.706 130.878 164.87 131.047C165.034 131.215 165.116 131.427 165.116 131.683C165.116 131.933 165.034 132.143 164.87 132.312C164.706 132.476 164.474 132.558 164.173 132.558C163.872 132.558 163.64 132.476 163.476 132.312C163.316 132.143 163.236 131.933 163.236 131.683ZM170.961 138.99C170.961 138.694 170.838 138.468 170.592 138.313C170.35 138.159 169.947 138.022 169.382 137.903C168.817 137.785 168.345 137.634 167.967 137.452C167.137 137.051 166.723 136.47 166.723 135.709C166.723 135.071 166.992 134.538 167.529 134.109C168.067 133.681 168.751 133.467 169.58 133.467C170.464 133.467 171.177 133.686 171.72 134.123C172.267 134.561 172.54 135.128 172.54 135.825H170.879C170.879 135.506 170.76 135.242 170.523 135.032C170.286 134.818 169.972 134.711 169.58 134.711C169.215 134.711 168.917 134.795 168.685 134.964C168.457 135.132 168.343 135.358 168.343 135.641C168.343 135.896 168.45 136.094 168.664 136.235C168.878 136.377 169.311 136.52 169.963 136.666C170.615 136.807 171.125 136.978 171.494 137.179C171.868 137.375 172.144 137.612 172.321 137.89C172.504 138.168 172.595 138.505 172.595 138.901C172.595 139.567 172.319 140.107 171.768 140.521C171.216 140.932 170.494 141.137 169.601 141.137C168.994 141.137 168.454 141.027 167.98 140.809C167.507 140.59 167.137 140.289 166.873 139.906C166.609 139.523 166.477 139.111 166.477 138.669H168.09C168.113 139.061 168.261 139.364 168.534 139.578C168.808 139.788 169.17 139.893 169.621 139.893C170.059 139.893 170.391 139.811 170.619 139.646C170.847 139.478 170.961 139.259 170.961 138.99ZM179.349 135.265H180.36C180.871 135.26 181.274 135.128 181.57 134.868C181.871 134.608 182.021 134.232 182.021 133.74C182.021 133.266 181.896 132.899 181.646 132.64C181.399 132.375 181.021 132.243 180.511 132.243C180.064 132.243 179.697 132.373 179.41 132.633C179.123 132.888 178.979 133.223 178.979 133.638H177.318C177.318 133.127 177.453 132.662 177.722 132.243C177.995 131.824 178.373 131.498 178.856 131.266C179.344 131.029 179.889 130.91 180.49 130.91C181.484 130.91 182.263 131.161 182.828 131.662C183.398 132.159 183.683 132.852 183.683 133.74C183.683 134.187 183.539 134.608 183.252 135.005C182.969 135.397 182.603 135.693 182.151 135.894C182.698 136.08 183.113 136.374 183.396 136.775C183.683 137.176 183.826 137.655 183.826 138.211C183.826 139.104 183.519 139.815 182.903 140.344C182.293 140.872 181.488 141.137 180.49 141.137C179.533 141.137 178.749 140.882 178.139 140.371C177.528 139.861 177.223 139.182 177.223 138.334H178.884C178.884 138.771 179.03 139.127 179.321 139.4C179.618 139.674 180.014 139.811 180.511 139.811C181.026 139.811 181.431 139.674 181.728 139.4C182.024 139.127 182.172 138.73 182.172 138.211C182.172 137.687 182.017 137.284 181.707 137.001C181.397 136.718 180.937 136.577 180.326 136.577H179.349V135.265ZM191.872 136.81C191.872 138.241 191.603 139.321 191.065 140.05C190.532 140.774 189.719 141.137 188.625 141.137C187.549 141.137 186.738 140.784 186.191 140.077C185.649 139.366 185.371 138.316 185.357 136.926V135.203C185.357 133.772 185.624 132.699 186.157 131.983C186.695 131.268 187.513 130.91 188.611 130.91C189.701 130.91 190.512 131.259 191.045 131.956C191.583 132.653 191.858 133.697 191.872 135.087V136.81ZM190.211 134.95C190.211 134.016 190.083 133.332 189.828 132.899C189.573 132.462 189.167 132.243 188.611 132.243C188.069 132.243 187.67 132.451 187.415 132.865C187.16 133.275 187.025 133.918 187.012 134.793V137.049C187.012 137.979 187.142 138.671 187.401 139.127C187.661 139.583 188.069 139.811 188.625 139.811C189.158 139.811 189.552 139.601 189.808 139.182C190.063 138.758 190.197 138.097 190.211 137.199V134.95Z" fill="black"/>
<path fill-rule="evenodd" clip-rule="evenodd" d="M149.656 38.5444C155.841 39.1304 161.619 40.634 167.367 42.9938C174.292 45.8365 184.106 46.6334 186.589 53.7058C189.131 60.9442 179.07 67.1083 178.523 74.762C177.905 83.4151 187.71 92.3439 183.297 99.8079C179.123 106.868 168.196 106.754 160.038 106.026C153.121 105.41 148.711 98.4819 142.172 96.1406C136.203 94.0036 128.419 97.3985 123.799 93.0507C119.196 88.7188 121.95 80.8145 119.633 74.9285C116.308 66.4804 104.88 59.9839 107.345 51.2452C109.681 42.9673 121.428 41.8897 129.653 39.4207C136.179 37.4619 142.875 37.9019 149.656 38.5444Z" fill="url(#paint0_linear)"/>
<path d="M146.806 78.8169H148.27C149.008 78.8103 149.592 78.6191 150.02 78.2433C150.455 77.8675 150.673 77.3236 150.673 76.6116C150.673 75.9259 150.492 75.3952 150.129 75.0194C149.773 74.637 149.226 74.4459 148.487 74.4459C147.841 74.4459 147.31 74.6338 146.895 75.0095C146.48 75.3787 146.272 75.8633 146.272 76.4633H143.869C143.869 75.7249 144.064 75.0524 144.453 74.4459C144.848 73.8393 145.395 73.3679 146.094 73.0317C146.8 72.6889 147.587 72.5175 148.458 72.5175C149.895 72.5175 151.022 72.8801 151.84 73.6053C152.664 74.3239 153.076 75.326 153.076 76.6116C153.076 77.2577 152.868 77.8675 152.453 78.4411C152.044 79.0081 151.513 79.4366 150.861 79.7267C151.652 79.997 152.252 80.4223 152.661 81.0024C153.076 81.5826 153.284 82.2748 153.284 83.0792C153.284 84.3714 152.839 85.3998 151.949 86.1646C151.065 86.9294 149.901 87.3118 148.458 87.3118C147.073 87.3118 145.939 86.9426 145.056 86.2042C144.172 85.4658 143.731 84.4834 143.731 83.2572H146.134C146.134 83.8901 146.345 84.4043 146.767 84.7999C147.195 85.1955 147.769 85.3932 148.487 85.3932C149.232 85.3932 149.819 85.1955 150.248 84.7999C150.676 84.4043 150.89 83.8307 150.89 83.0792C150.89 82.321 150.666 81.7375 150.218 81.3288C149.77 80.92 149.104 80.7156 148.22 80.7156H146.806V78.8169Z" fill="white"/>
<path d="M164.923 81.0519C164.923 83.122 164.534 84.6845 163.756 85.7394C162.985 86.7876 161.808 87.3118 160.226 87.3118C158.67 87.3118 157.496 86.8008 156.705 85.7789C155.921 84.7504 155.519 83.2308 155.499 81.22V78.7279C155.499 76.6578 155.884 75.1051 156.656 74.0701C157.434 73.035 158.617 72.5175 160.206 72.5175C161.782 72.5175 162.955 73.0218 163.727 74.0305C164.505 75.0392 164.903 76.549 164.923 78.5598V81.0519ZM162.52 78.362C162.52 77.0105 162.336 76.0215 161.966 75.3952C161.597 74.7623 161.01 74.4459 160.206 74.4459C159.422 74.4459 158.845 74.7458 158.475 75.3458C158.106 75.9391 157.912 76.8687 157.892 78.1345V81.398C157.892 82.7429 158.08 83.745 158.456 84.4043C158.831 85.0636 159.422 85.3932 160.226 85.3932C160.997 85.3932 161.567 85.09 161.937 84.4834C162.306 83.8703 162.5 82.9143 162.52 81.6156V78.362Z" fill="white"/>
<path d="M85 291.219L77.4375 298.781L74 295.344" stroke="#27A807" stroke-width="2" stroke-linecap="round" stroke-linejoin="round"/>
<path d="M101.162 290.047V296.814C101.158 297.753 100.861 298.521 100.273 299.118C99.6901 299.715 98.8971 300.05 97.8945 300.123L97.5459 300.137C96.4567 300.137 95.5885 299.843 94.9414 299.255C94.2943 298.667 93.9661 297.858 93.957 296.828V290.047H95.2559V296.787C95.2559 297.507 95.4541 298.068 95.8506 298.469C96.2471 298.865 96.8122 299.063 97.5459 299.063C98.2887 299.063 98.8561 298.865 99.248 298.469C99.6445 298.072 99.8428 297.514 99.8428 296.794V290.047H101.162ZM104.231 292.604L104.272 293.533C104.838 292.822 105.576 292.467 106.487 292.467C108.05 292.467 108.839 293.349 108.853 295.112V300H107.588V295.105C107.583 294.572 107.46 294.178 107.219 293.923C106.982 293.668 106.61 293.54 106.104 293.54C105.694 293.54 105.334 293.649 105.024 293.868C104.715 294.087 104.473 294.374 104.3 294.729V300H103.035V292.604H104.231ZM112.134 300H110.869V289.5H112.134V300ZM115.538 300H114.273V292.604H115.538V300ZM114.171 290.642C114.171 290.437 114.232 290.263 114.355 290.122C114.483 289.981 114.67 289.91 114.916 289.91C115.162 289.91 115.349 289.981 115.477 290.122C115.604 290.263 115.668 290.437 115.668 290.642C115.668 290.847 115.604 291.018 115.477 291.154C115.349 291.291 115.162 291.359 114.916 291.359C114.67 291.359 114.483 291.291 114.355 291.154C114.232 291.018 114.171 290.847 114.171 290.642ZM118.758 292.604L118.792 293.424C119.334 292.786 120.066 292.467 120.986 292.467C122.021 292.467 122.725 292.863 123.099 293.656C123.345 293.301 123.664 293.014 124.056 292.795C124.452 292.576 124.919 292.467 125.457 292.467C127.079 292.467 127.904 293.326 127.932 295.044V300H126.667V295.119C126.667 294.59 126.546 294.196 126.305 293.937C126.063 293.672 125.658 293.54 125.088 293.54C124.618 293.54 124.229 293.681 123.919 293.964C123.609 294.242 123.429 294.618 123.379 295.092V300H122.107V295.153C122.107 294.078 121.581 293.54 120.528 293.54C119.699 293.54 119.132 293.893 118.826 294.6V300H117.562V292.604H118.758ZM131.22 300H129.955V292.604H131.22V300ZM129.853 290.642C129.853 290.437 129.914 290.263 130.037 290.122C130.165 289.981 130.352 289.91 130.598 289.91C130.844 289.91 131.031 289.981 131.158 290.122C131.286 290.263 131.35 290.437 131.35 290.642C131.35 290.847 131.286 291.018 131.158 291.154C131.031 291.291 130.844 291.359 130.598 291.359C130.352 291.359 130.165 291.291 130.037 291.154C129.914 291.018 129.853 290.847 129.853 290.642ZM134.966 290.812V292.604H136.347V293.581H134.966V298.168C134.966 298.464 135.027 298.688 135.15 298.838C135.273 298.984 135.483 299.057 135.779 299.057C135.925 299.057 136.126 299.029 136.381 298.975V300C136.048 300.091 135.725 300.137 135.41 300.137C134.845 300.137 134.419 299.966 134.132 299.624C133.845 299.282 133.701 298.797 133.701 298.168V293.581H132.354V292.604H133.701V290.812H134.966ZM140.899 300.137C139.897 300.137 139.081 299.809 138.452 299.152C137.823 298.492 137.509 297.61 137.509 296.507V296.274C137.509 295.541 137.648 294.887 137.926 294.312C138.208 293.734 138.6 293.283 139.102 292.959C139.607 292.631 140.154 292.467 140.742 292.467C141.704 292.467 142.451 292.784 142.984 293.417C143.518 294.05 143.784 294.957 143.784 296.138V296.664H138.773C138.792 297.393 139.004 297.983 139.409 298.435C139.819 298.881 140.339 299.104 140.968 299.104C141.414 299.104 141.793 299.013 142.103 298.831C142.412 298.649 142.684 298.407 142.916 298.106L143.688 298.708C143.069 299.66 142.139 300.137 140.899 300.137ZM140.742 293.506C140.232 293.506 139.803 293.693 139.457 294.066C139.111 294.436 138.896 294.955 138.814 295.625H142.52V295.529C142.483 294.887 142.31 294.39 142 294.039C141.69 293.684 141.271 293.506 140.742 293.506ZM144.946 296.24C144.946 295.105 145.215 294.194 145.753 293.506C146.291 292.813 146.995 292.467 147.865 292.467C148.731 292.467 149.417 292.763 149.923 293.355V289.5H151.188V300H150.025L149.964 299.207C149.458 299.827 148.754 300.137 147.852 300.137C146.995 300.137 146.295 299.786 145.753 299.084C145.215 298.382 144.946 297.466 144.946 296.336V296.24ZM146.211 296.384C146.211 297.222 146.384 297.879 146.73 298.353C147.077 298.826 147.555 299.063 148.166 299.063C148.968 299.063 149.554 298.703 149.923 297.983V294.586C149.545 293.889 148.964 293.54 148.18 293.54C147.56 293.54 147.077 293.779 146.73 294.258C146.384 294.736 146.211 295.445 146.211 296.384ZM157.053 300V293.581H155.884V292.604H157.053V291.975C157.053 291.15 157.287 290.507 157.757 290.047C158.231 289.587 158.898 289.356 159.76 289.356C160.27 289.356 160.915 289.495 161.694 289.773L161.482 290.84C160.913 290.612 160.37 290.498 159.855 290.498C159.313 290.498 158.921 290.621 158.68 290.867C158.443 291.109 158.324 291.473 158.324 291.961V292.604H159.835V293.581H158.324V300H157.053ZM162.323 300H161.052V292.604H162.323V300ZM165.755 300H164.49V289.5H165.755V300ZM170.854 300.137C169.852 300.137 169.036 299.809 168.407 299.152C167.778 298.492 167.464 297.61 167.464 296.507V296.274C167.464 295.541 167.603 294.887 167.881 294.312C168.163 293.734 168.555 293.283 169.057 292.959C169.562 292.631 170.109 292.467 170.697 292.467C171.659 292.467 172.406 292.784 172.939 293.417C173.473 294.05 173.739 294.957 173.739 296.138V296.664H168.729C168.747 297.393 168.959 297.983 169.364 298.435C169.774 298.881 170.294 299.104 170.923 299.104C171.369 299.104 171.748 299.013 172.058 298.831C172.368 298.649 172.639 298.407 172.871 298.106L173.644 298.708C173.024 299.66 172.094 300.137 170.854 300.137ZM170.697 293.506C170.187 293.506 169.758 293.693 169.412 294.066C169.066 294.436 168.852 294.955 168.77 295.625H172.475V295.529C172.438 294.887 172.265 294.39 171.955 294.039C171.645 293.684 171.226 293.506 170.697 293.506ZM183.248 299.269C182.756 299.847 182.034 300.137 181.081 300.137C180.293 300.137 179.691 299.909 179.276 299.453C178.866 298.993 178.659 298.314 178.654 297.416V292.604H179.919V297.382C179.919 298.503 180.375 299.063 181.286 299.063C182.252 299.063 182.895 298.703 183.214 297.983V292.604H184.479V300H183.275L183.248 299.269ZM192.654 296.384C192.654 297.509 192.397 298.416 191.882 299.104C191.367 299.793 190.67 300.137 189.79 300.137C188.892 300.137 188.186 299.852 187.671 299.282V302.844H186.406V292.604H187.562L187.623 293.424C188.138 292.786 188.854 292.467 189.77 292.467C190.658 292.467 191.36 292.802 191.875 293.472C192.395 294.142 192.654 295.074 192.654 296.268V296.384ZM191.39 296.24C191.39 295.406 191.212 294.748 190.856 294.265C190.501 293.782 190.013 293.54 189.394 293.54C188.628 293.54 188.054 293.88 187.671 294.559V298.093C188.049 298.767 188.628 299.104 189.407 299.104C190.013 299.104 190.494 298.865 190.85 298.387C191.21 297.904 191.39 297.188 191.39 296.24ZM195.642 300H194.377V289.5H195.642V300ZM197.337 296.233C197.337 295.509 197.478 294.857 197.761 294.278C198.048 293.7 198.444 293.253 198.95 292.938C199.461 292.624 200.042 292.467 200.693 292.467C201.701 292.467 202.514 292.815 203.134 293.513C203.758 294.21 204.07 295.137 204.07 296.295V296.384C204.07 297.104 203.931 297.751 203.653 298.325C203.38 298.895 202.986 299.339 202.471 299.658C201.96 299.977 201.372 300.137 200.707 300.137C199.704 300.137 198.891 299.788 198.267 299.091C197.647 298.394 197.337 297.471 197.337 296.322V296.233ZM198.608 296.384C198.608 297.204 198.798 297.863 199.176 298.359C199.559 298.856 200.069 299.104 200.707 299.104C201.35 299.104 201.86 298.854 202.238 298.353C202.617 297.847 202.806 297.14 202.806 296.233C202.806 295.422 202.612 294.766 202.225 294.265C201.842 293.759 201.331 293.506 200.693 293.506C200.069 293.506 199.565 293.754 199.183 294.251C198.8 294.748 198.608 295.459 198.608 296.384ZM210.223 300C210.15 299.854 210.09 299.594 210.045 299.221C209.457 299.831 208.755 300.137 207.939 300.137C207.21 300.137 206.611 299.932 206.142 299.521C205.677 299.107 205.444 298.583 205.444 297.949C205.444 297.179 205.736 296.582 206.319 296.158C206.907 295.73 207.732 295.516 208.794 295.516H210.024V294.935C210.024 294.493 209.892 294.142 209.628 293.882C209.364 293.618 208.974 293.485 208.459 293.485C208.008 293.485 207.63 293.599 207.324 293.827C207.019 294.055 206.866 294.331 206.866 294.654H205.595C205.595 294.285 205.725 293.93 205.984 293.588C206.249 293.242 206.604 292.968 207.051 292.768C207.502 292.567 207.996 292.467 208.534 292.467C209.386 292.467 210.054 292.681 210.537 293.109C211.02 293.533 211.271 294.119 211.289 294.866V298.271C211.289 298.95 211.376 299.49 211.549 299.891V300H210.223ZM208.124 299.036C208.521 299.036 208.896 298.934 209.252 298.729C209.607 298.523 209.865 298.257 210.024 297.929V296.411H209.033C207.484 296.411 206.709 296.865 206.709 297.771C206.709 298.168 206.841 298.478 207.105 298.701C207.37 298.924 207.709 299.036 208.124 299.036ZM212.964 296.24C212.964 295.105 213.233 294.194 213.771 293.506C214.308 292.813 215.012 292.467 215.883 292.467C216.749 292.467 217.435 292.763 217.94 293.355V289.5H219.205V300H218.043L217.981 299.207C217.476 299.827 216.771 300.137 215.869 300.137C215.012 300.137 214.313 299.786 213.771 299.084C213.233 298.382 212.964 297.466 212.964 296.336V296.24ZM214.229 296.384C214.229 297.222 214.402 297.879 214.748 298.353C215.094 298.826 215.573 299.063 216.184 299.063C216.986 299.063 217.571 298.703 217.94 297.983V294.586C217.562 293.889 216.981 293.54 216.197 293.54C215.577 293.54 215.094 293.779 214.748 294.258C214.402 294.736 214.229 295.445 214.229 296.384ZM225.48 298.038C225.48 297.696 225.351 297.432 225.091 297.245C224.836 297.054 224.387 296.89 223.744 296.753C223.106 296.616 222.598 296.452 222.22 296.261C221.846 296.069 221.568 295.841 221.386 295.577C221.208 295.313 221.119 294.998 221.119 294.634C221.119 294.028 221.374 293.515 221.885 293.096C222.4 292.676 223.056 292.467 223.854 292.467C224.692 292.467 225.371 292.683 225.891 293.116C226.415 293.549 226.677 294.103 226.677 294.777H225.405C225.405 294.431 225.257 294.132 224.961 293.882C224.669 293.631 224.3 293.506 223.854 293.506C223.393 293.506 223.033 293.606 222.773 293.807C222.514 294.007 222.384 294.269 222.384 294.593C222.384 294.898 222.505 295.128 222.746 295.283C222.988 295.438 223.423 295.586 224.052 295.728C224.685 295.869 225.198 296.037 225.59 296.233C225.982 296.429 226.271 296.666 226.458 296.944C226.649 297.218 226.745 297.553 226.745 297.949C226.745 298.61 226.481 299.141 225.952 299.542C225.424 299.938 224.738 300.137 223.895 300.137C223.302 300.137 222.778 300.032 222.322 299.822C221.867 299.613 221.509 299.321 221.249 298.947C220.994 298.569 220.866 298.161 220.866 297.724H222.131C222.154 298.147 222.322 298.485 222.637 298.735C222.956 298.981 223.375 299.104 223.895 299.104C224.373 299.104 224.756 299.009 225.043 298.817C225.335 298.621 225.48 298.362 225.48 298.038Z" fill="#666666"/>
<path d="M85 315.219L77.4375 322.781L74 319.344" stroke="#27A807" stroke-width="2" stroke-linecap="round" stroke-linejoin="round"/>
<path d="M101.162 314.047V320.814C101.158 321.753 100.861 322.521 100.273 323.118C99.6901 323.715 98.8971 324.05 97.8945 324.123L97.5459 324.137C96.4567 324.137 95.5885 323.843 94.9414 323.255C94.2943 322.667 93.9661 321.858 93.957 320.828V314.047H95.2559V320.787C95.2559 321.507 95.4541 322.068 95.8506 322.469C96.2471 322.865 96.8122 323.063 97.5459 323.063C98.2887 323.063 98.8561 322.865 99.248 322.469C99.6445 322.072 99.8428 321.514 99.8428 320.794V314.047H101.162ZM104.231 316.604L104.272 317.533C104.838 316.822 105.576 316.467 106.487 316.467C108.05 316.467 108.839 317.349 108.853 319.112V324H107.588V319.105C107.583 318.572 107.46 318.178 107.219 317.923C106.982 317.668 106.61 317.54 106.104 317.54C105.694 317.54 105.334 317.649 105.024 317.868C104.715 318.087 104.473 318.374 104.3 318.729V324H103.035V316.604H104.231ZM112.134 324H110.869V313.5H112.134V324ZM115.538 324H114.273V316.604H115.538V324ZM114.171 314.642C114.171 314.437 114.232 314.263 114.355 314.122C114.483 313.981 114.67 313.91 114.916 313.91C115.162 313.91 115.349 313.981 115.477 314.122C115.604 314.263 115.668 314.437 115.668 314.642C115.668 314.847 115.604 315.018 115.477 315.154C115.349 315.291 115.162 315.359 114.916 315.359C114.67 315.359 114.483 315.291 114.355 315.154C114.232 315.018 114.171 314.847 114.171 314.642ZM118.758 316.604L118.792 317.424C119.334 316.786 120.066 316.467 120.986 316.467C122.021 316.467 122.725 316.863 123.099 317.656C123.345 317.301 123.664 317.014 124.056 316.795C124.452 316.576 124.919 316.467 125.457 316.467C127.079 316.467 127.904 317.326 127.932 319.044V324H126.667V319.119C126.667 318.59 126.546 318.196 126.305 317.937C126.063 317.672 125.658 317.54 125.088 317.54C124.618 317.54 124.229 317.681 123.919 317.964C123.609 318.242 123.429 318.618 123.379 319.092V324H122.107V319.153C122.107 318.078 121.581 317.54 120.528 317.54C119.699 317.54 119.132 317.893 118.826 318.6V324H117.562V316.604H118.758ZM131.22 324H129.955V316.604H131.22V324ZM129.853 314.642C129.853 314.437 129.914 314.263 130.037 314.122C130.165 313.981 130.352 313.91 130.598 313.91C130.844 313.91 131.031 313.981 131.158 314.122C131.286 314.263 131.35 314.437 131.35 314.642C131.35 314.847 131.286 315.018 131.158 315.154C131.031 315.291 130.844 315.359 130.598 315.359C130.352 315.359 130.165 315.291 130.037 315.154C129.914 315.018 129.853 314.847 129.853 314.642ZM134.966 314.812V316.604H136.347V317.581H134.966V322.168C134.966 322.464 135.027 322.688 135.15 322.838C135.273 322.984 135.483 323.057 135.779 323.057C135.925 323.057 136.126 323.029 136.381 322.975V324C136.048 324.091 135.725 324.137 135.41 324.137C134.845 324.137 134.419 323.966 134.132 323.624C133.845 323.282 133.701 322.797 133.701 322.168V317.581H132.354V316.604H133.701V314.812H134.966ZM140.899 324.137C139.897 324.137 139.081 323.809 138.452 323.152C137.823 322.492 137.509 321.61 137.509 320.507V320.274C137.509 319.541 137.648 318.887 137.926 318.312C138.208 317.734 138.6 317.283 139.102 316.959C139.607 316.631 140.154 316.467 140.742 316.467C141.704 316.467 142.451 316.784 142.984 317.417C143.518 318.05 143.784 318.957 143.784 320.138V320.664H138.773C138.792 321.393 139.004 321.983 139.409 322.435C139.819 322.881 140.339 323.104 140.968 323.104C141.414 323.104 141.793 323.013 142.103 322.831C142.412 322.649 142.684 322.407 142.916 322.106L143.688 322.708C143.069 323.66 142.139 324.137 140.899 324.137ZM140.742 317.506C140.232 317.506 139.803 317.693 139.457 318.066C139.111 318.436 138.896 318.955 138.814 319.625H142.52V319.529C142.483 318.887 142.31 318.39 142 318.039C141.69 317.684 141.271 317.506 140.742 317.506ZM144.946 320.24C144.946 319.105 145.215 318.194 145.753 317.506C146.291 316.813 146.995 316.467 147.865 316.467C148.731 316.467 149.417 316.763 149.923 317.355V313.5H151.188V324H150.025L149.964 323.207C149.458 323.827 148.754 324.137 147.852 324.137C146.995 324.137 146.295 323.786 145.753 323.084C145.215 322.382 144.946 321.466 144.946 320.336V320.24ZM146.211 320.384C146.211 321.222 146.384 321.879 146.73 322.353C147.077 322.826 147.555 323.063 148.166 323.063C148.968 323.063 149.554 322.703 149.923 321.983V318.586C149.545 317.889 148.964 317.54 148.18 317.54C147.56 317.54 147.077 317.779 146.73 318.258C146.384 318.736 146.211 319.445 146.211 320.384ZM157.053 324V317.581H155.884V316.604H157.053V315.975C157.053 315.15 157.287 314.507 157.757 314.047C158.231 313.587 158.898 313.356 159.76 313.356C160.27 313.356 160.915 313.495 161.694 313.773L161.482 314.84C160.913 314.612 160.37 314.498 159.855 314.498C159.313 314.498 158.921 314.621 158.68 314.867C158.443 315.109 158.324 315.473 158.324 315.961V316.604H159.835V317.581H158.324V324H157.053ZM162.323 324H161.052V316.604H162.323V324ZM165.755 324H164.49V313.5H165.755V324ZM170.854 324.137C169.852 324.137 169.036 323.809 168.407 323.152C167.778 322.492 167.464 321.61 167.464 320.507V320.274C167.464 319.541 167.603 318.887 167.881 318.312C168.163 317.734 168.555 317.283 169.057 316.959C169.562 316.631 170.109 316.467 170.697 316.467C171.659 316.467 172.406 316.784 172.939 317.417C173.473 318.05 173.739 318.957 173.739 320.138V320.664H168.729C168.747 321.393 168.959 321.983 169.364 322.435C169.774 322.881 170.294 323.104 170.923 323.104C171.369 323.104 171.748 323.013 172.058 322.831C172.368 322.649 172.639 322.407 172.871 322.106L173.644 322.708C173.024 323.66 172.094 324.137 170.854 324.137ZM170.697 317.506C170.187 317.506 169.758 317.693 169.412 318.066C169.066 318.436 168.852 318.955 168.77 319.625H172.475V319.529C172.438 318.887 172.265 318.39 171.955 318.039C171.645 317.684 171.226 317.506 170.697 317.506ZM183.248 323.269C182.756 323.847 182.034 324.137 181.081 324.137C180.293 324.137 179.691 323.909 179.276 323.453C178.866 322.993 178.659 322.314 178.654 321.416V316.604H179.919V321.382C179.919 322.503 180.375 323.063 181.286 323.063C182.252 323.063 182.895 322.703 183.214 321.983V316.604H184.479V324H183.275L183.248 323.269ZM192.654 320.384C192.654 321.509 192.397 322.416 191.882 323.104C191.367 323.793 190.67 324.137 189.79 324.137C188.892 324.137 188.186 323.852 187.671 323.282V326.844H186.406V316.604H187.562L187.623 317.424C188.138 316.786 188.854 316.467 189.77 316.467C190.658 316.467 191.36 316.802 191.875 317.472C192.395 318.142 192.654 319.074 192.654 320.268V320.384ZM191.39 320.24C191.39 319.406 191.212 318.748 190.856 318.265C190.501 317.782 190.013 317.54 189.394 317.54C188.628 317.54 188.054 317.88 187.671 318.559V322.093C188.049 322.767 188.628 323.104 189.407 323.104C190.013 323.104 190.494 322.865 190.85 322.387C191.21 321.904 191.39 321.188 191.39 320.24ZM195.642 324H194.377V313.5H195.642V324ZM197.337 320.233C197.337 319.509 197.478 318.857 197.761 318.278C198.048 317.7 198.444 317.253 198.95 316.938C199.461 316.624 200.042 316.467 200.693 316.467C201.701 316.467 202.514 316.815 203.134 317.513C203.758 318.21 204.07 319.137 204.07 320.295V320.384C204.07 321.104 203.931 321.751 203.653 322.325C203.38 322.895 202.986 323.339 202.471 323.658C201.96 323.977 201.372 324.137 200.707 324.137C199.704 324.137 198.891 323.788 198.267 323.091C197.647 322.394 197.337 321.471 197.337 320.322V320.233ZM198.608 320.384C198.608 321.204 198.798 321.863 199.176 322.359C199.559 322.856 200.069 323.104 200.707 323.104C201.35 323.104 201.86 322.854 202.238 322.353C202.617 321.847 202.806 321.14 202.806 320.233C202.806 319.422 202.612 318.766 202.225 318.265C201.842 317.759 201.331 317.506 200.693 317.506C200.069 317.506 199.565 317.754 199.183 318.251C198.8 318.748 198.608 319.459 198.608 320.384ZM210.223 324C210.15 323.854 210.09 323.594 210.045 323.221C209.457 323.831 208.755 324.137 207.939 324.137C207.21 324.137 206.611 323.932 206.142 323.521C205.677 323.107 205.444 322.583 205.444 321.949C205.444 321.179 205.736 320.582 206.319 320.158C206.907 319.73 207.732 319.516 208.794 319.516H210.024V318.935C210.024 318.493 209.892 318.142 209.628 317.882C209.364 317.618 208.974 317.485 208.459 317.485C208.008 317.485 207.63 317.599 207.324 317.827C207.019 318.055 206.866 318.331 206.866 318.654H205.595C205.595 318.285 205.725 317.93 205.984 317.588C206.249 317.242 206.604 316.968 207.051 316.768C207.502 316.567 207.996 316.467 208.534 316.467C209.386 316.467 210.054 316.681 210.537 317.109C211.02 317.533 211.271 318.119 211.289 318.866V322.271C211.289 322.95 211.376 323.49 211.549 323.891V324H210.223ZM208.124 323.036C208.521 323.036 208.896 322.934 209.252 322.729C209.607 322.523 209.865 322.257 210.024 321.929V320.411H209.033C207.484 320.411 206.709 320.865 206.709 321.771C206.709 322.168 206.841 322.478 207.105 322.701C207.37 322.924 207.709 323.036 208.124 323.036ZM212.964 320.24C212.964 319.105 213.233 318.194 213.771 317.506C214.308 316.813 215.012 316.467 215.883 316.467C216.749 316.467 217.435 316.763 217.94 317.355V313.5H219.205V324H218.043L217.981 323.207C217.476 323.827 216.771 324.137 215.869 324.137C215.012 324.137 214.313 323.786 213.771 323.084C213.233 322.382 212.964 321.466 212.964 320.336V320.24ZM214.229 320.384C214.229 321.222 214.402 321.879 214.748 322.353C215.094 322.826 215.573 323.063 216.184 323.063C216.986 323.063 217.571 322.703 217.94 321.983V318.586C217.562 317.889 216.981 317.54 216.197 317.54C215.577 317.54 215.094 317.779 214.748 318.258C214.402 318.736 214.229 319.445 214.229 320.384ZM225.48 322.038C225.48 321.696 225.351 321.432 225.091 321.245C224.836 321.054 224.387 320.89 223.744 320.753C223.106 320.616 222.598 320.452 222.22 320.261C221.846 320.069 221.568 319.841 221.386 319.577C221.208 319.313 221.119 318.998 221.119 318.634C221.119 318.028 221.374 317.515 221.885 317.096C222.4 316.676 223.056 316.467 223.854 316.467C224.692 316.467 225.371 316.683 225.891 317.116C226.415 317.549 226.677 318.103 226.677 318.777H225.405C225.405 318.431 225.257 318.132 224.961 317.882C224.669 317.631 224.3 317.506 223.854 317.506C223.393 317.506 223.033 317.606 222.773 317.807C222.514 318.007 222.384 318.269 222.384 318.593C222.384 318.898 222.505 319.128 222.746 319.283C222.988 319.438 223.423 319.586 224.052 319.728C224.685 319.869 225.198 320.037 225.59 320.233C225.982 320.429 226.271 320.666 226.458 320.944C226.649 321.218 226.745 321.553 226.745 321.949C226.745 322.61 226.481 323.141 225.952 323.542C225.424 323.938 224.738 324.137 223.895 324.137C223.302 324.137 222.778 324.032 222.322 323.822C221.867 323.613 221.509 323.321 221.249 322.947C220.994 322.569 220.866 322.161 220.866 321.724H222.131C222.154 322.147 222.322 322.485 222.637 322.735C222.956 322.981 223.375 323.104 223.895 323.104C224.373 323.104 224.756 323.009 225.043 322.817C225.335 322.621 225.48 322.362 225.48 322.038Z" fill="#666666"/>
<path d="M85 339.219L77.4375 346.781L74 343.344" stroke="#27A807" stroke-width="2" stroke-linecap="round" stroke-linejoin="round"/>
<path d="M101.162 338.047V344.814C101.158 345.753 100.861 346.521 100.273 347.118C99.6901 347.715 98.8971 348.05 97.8945 348.123L97.5459 348.137C96.4567 348.137 95.5885 347.843 94.9414 347.255C94.2943 346.667 93.9661 345.858 93.957 344.828V338.047H95.2559V344.787C95.2559 345.507 95.4541 346.068 95.8506 346.469C96.2471 346.865 96.8122 347.063 97.5459 347.063C98.2887 347.063 98.8561 346.865 99.248 346.469C99.6445 346.072 99.8428 345.514 99.8428 344.794V338.047H101.162ZM104.231 340.604L104.272 341.533C104.838 340.822 105.576 340.467 106.487 340.467C108.05 340.467 108.839 341.349 108.853 343.112V348H107.588V343.105C107.583 342.572 107.46 342.178 107.219 341.923C106.982 341.668 106.61 341.54 106.104 341.54C105.694 341.54 105.334 341.649 105.024 341.868C104.715 342.087 104.473 342.374 104.3 342.729V348H103.035V340.604H104.231ZM112.134 348H110.869V337.5H112.134V348ZM115.538 348H114.273V340.604H115.538V348ZM114.171 338.642C114.171 338.437 114.232 338.263 114.355 338.122C114.483 337.981 114.67 337.91 114.916 337.91C115.162 337.91 115.349 337.981 115.477 338.122C115.604 338.263 115.668 338.437 115.668 338.642C115.668 338.847 115.604 339.018 115.477 339.154C115.349 339.291 115.162 339.359 114.916 339.359C114.67 339.359 114.483 339.291 114.355 339.154C114.232 339.018 114.171 338.847 114.171 338.642ZM118.758 340.604L118.792 341.424C119.334 340.786 120.066 340.467 120.986 340.467C122.021 340.467 122.725 340.863 123.099 341.656C123.345 341.301 123.664 341.014 124.056 340.795C124.452 340.576 124.919 340.467 125.457 340.467C127.079 340.467 127.904 341.326 127.932 343.044V348H126.667V343.119C126.667 342.59 126.546 342.196 126.305 341.937C126.063 341.672 125.658 341.54 125.088 341.54C124.618 341.54 124.229 341.681 123.919 341.964C123.609 342.242 123.429 342.618 123.379 343.092V348H122.107V343.153C122.107 342.078 121.581 341.54 120.528 341.54C119.699 341.54 119.132 341.893 118.826 342.6V348H117.562V340.604H118.758ZM131.22 348H129.955V340.604H131.22V348ZM129.853 338.642C129.853 338.437 129.914 338.263 130.037 338.122C130.165 337.981 130.352 337.91 130.598 337.91C130.844 337.91 131.031 337.981 131.158 338.122C131.286 338.263 131.35 338.437 131.35 338.642C131.35 338.847 131.286 339.018 131.158 339.154C131.031 339.291 130.844 339.359 130.598 339.359C130.352 339.359 130.165 339.291 130.037 339.154C129.914 339.018 129.853 338.847 129.853 338.642ZM134.966 338.812V340.604H136.347V341.581H134.966V346.168C134.966 346.464 135.027 346.688 135.15 346.838C135.273 346.984 135.483 347.057 135.779 347.057C135.925 347.057 136.126 347.029 136.381 346.975V348C136.048 348.091 135.725 348.137 135.41 348.137C134.845 348.137 134.419 347.966 134.132 347.624C133.845 347.282 133.701 346.797 133.701 346.168V341.581H132.354V340.604H133.701V338.812H134.966ZM140.899 348.137C139.897 348.137 139.081 347.809 138.452 347.152C137.823 346.492 137.509 345.61 137.509 344.507V344.274C137.509 343.541 137.648 342.887 137.926 342.312C138.208 341.734 138.6 341.283 139.102 340.959C139.607 340.631 140.154 340.467 140.742 340.467C141.704 340.467 142.451 340.784 142.984 341.417C143.518 342.05 143.784 342.957 143.784 344.138V344.664H138.773C138.792 345.393 139.004 345.983 139.409 346.435C139.819 346.881 140.339 347.104 140.968 347.104C141.414 347.104 141.793 347.013 142.103 346.831C142.412 346.649 142.684 346.407 142.916 346.106L143.688 346.708C143.069 347.66 142.139 348.137 140.899 348.137ZM140.742 341.506C140.232 341.506 139.803 341.693 139.457 342.066C139.111 342.436 138.896 342.955 138.814 343.625H142.52V343.529C142.483 342.887 142.31 342.39 142 342.039C141.69 341.684 141.271 341.506 140.742 341.506ZM144.946 344.24C144.946 343.105 145.215 342.194 145.753 341.506C146.291 340.813 146.995 340.467 147.865 340.467C148.731 340.467 149.417 340.763 149.923 341.355V337.5H151.188V348H150.025L149.964 347.207C149.458 347.827 148.754 348.137 147.852 348.137C146.995 348.137 146.295 347.786 145.753 347.084C145.215 346.382 144.946 345.466 144.946 344.336V344.24ZM146.211 344.384C146.211 345.222 146.384 345.879 146.73 346.353C147.077 346.826 147.555 347.063 148.166 347.063C148.968 347.063 149.554 346.703 149.923 345.983V342.586C149.545 341.889 148.964 341.54 148.18 341.54C147.56 341.54 147.077 341.779 146.73 342.258C146.384 342.736 146.211 343.445 146.211 344.384ZM157.053 348V341.581H155.884V340.604H157.053V339.975C157.053 339.15 157.287 338.507 157.757 338.047C158.231 337.587 158.898 337.356 159.76 337.356C160.27 337.356 160.915 337.495 161.694 337.773L161.482 338.84C160.913 338.612 160.37 338.498 159.855 338.498C159.313 338.498 158.921 338.621 158.68 338.867C158.443 339.109 158.324 339.473 158.324 339.961V340.604H159.835V341.581H158.324V348H157.053ZM162.323 348H161.052V340.604H162.323V348ZM165.755 348H164.49V337.5H165.755V348ZM170.854 348.137C169.852 348.137 169.036 347.809 168.407 347.152C167.778 346.492 167.464 345.61 167.464 344.507V344.274C167.464 343.541 167.603 342.887 167.881 342.312C168.163 341.734 168.555 341.283 169.057 340.959C169.562 340.631 170.109 340.467 170.697 340.467C171.659 340.467 172.406 340.784 172.939 341.417C173.473 342.05 173.739 342.957 173.739 344.138V344.664H168.729C168.747 345.393 168.959 345.983 169.364 346.435C169.774 346.881 170.294 347.104 170.923 347.104C171.369 347.104 171.748 347.013 172.058 346.831C172.368 346.649 172.639 346.407 172.871 346.106L173.644 346.708C173.024 347.66 172.094 348.137 170.854 348.137ZM170.697 341.506C170.187 341.506 169.758 341.693 169.412 342.066C169.066 342.436 168.852 342.955 168.77 343.625H172.475V343.529C172.438 342.887 172.265 342.39 171.955 342.039C171.645 341.684 171.226 341.506 170.697 341.506ZM183.248 347.269C182.756 347.847 182.034 348.137 181.081 348.137C180.293 348.137 179.691 347.909 179.276 347.453C178.866 346.993 178.659 346.314 178.654 345.416V340.604H179.919V345.382C179.919 346.503 180.375 347.063 181.286 347.063C182.252 347.063 182.895 346.703 183.214 345.983V340.604H184.479V348H183.275L183.248 347.269ZM192.654 344.384C192.654 345.509 192.397 346.416 191.882 347.104C191.367 347.793 190.67 348.137 189.79 348.137C188.892 348.137 188.186 347.852 187.671 347.282V350.844H186.406V340.604H187.562L187.623 341.424C188.138 340.786 188.854 340.467 189.77 340.467C190.658 340.467 191.36 340.802 191.875 341.472C192.395 342.142 192.654 343.074 192.654 344.268V344.384ZM191.39 344.24C191.39 343.406 191.212 342.748 190.856 342.265C190.501 341.782 190.013 341.54 189.394 341.54C188.628 341.54 188.054 341.88 187.671 342.559V346.093C188.049 346.767 188.628 347.104 189.407 347.104C190.013 347.104 190.494 346.865 190.85 346.387C191.21 345.904 191.39 345.188 191.39 344.24ZM195.642 348H194.377V337.5H195.642V348ZM197.337 344.233C197.337 343.509 197.478 342.857 197.761 342.278C198.048 341.7 198.444 341.253 198.95 340.938C199.461 340.624 200.042 340.467 200.693 340.467C201.701 340.467 202.514 340.815 203.134 341.513C203.758 342.21 204.07 343.137 204.07 344.295V344.384C204.07 345.104 203.931 345.751 203.653 346.325C203.38 346.895 202.986 347.339 202.471 347.658C201.96 347.977 201.372 348.137 200.707 348.137C199.704 348.137 198.891 347.788 198.267 347.091C197.647 346.394 197.337 345.471 197.337 344.322V344.233ZM198.608 344.384C198.608 345.204 198.798 345.863 199.176 346.359C199.559 346.856 200.069 347.104 200.707 347.104C201.35 347.104 201.86 346.854 202.238 346.353C202.617 345.847 202.806 345.14 202.806 344.233C202.806 343.422 202.612 342.766 202.225 342.265C201.842 341.759 201.331 341.506 200.693 341.506C200.069 341.506 199.565 341.754 199.183 342.251C198.8 342.748 198.608 343.459 198.608 344.384ZM210.223 348C210.15 347.854 210.09 347.594 210.045 347.221C209.457 347.831 208.755 348.137 207.939 348.137C207.21 348.137 206.611 347.932 206.142 347.521C205.677 347.107 205.444 346.583 205.444 345.949C205.444 345.179 205.736 344.582 206.319 344.158C206.907 343.73 207.732 343.516 208.794 343.516H210.024V342.935C210.024 342.493 209.892 342.142 209.628 341.882C209.364 341.618 208.974 341.485 208.459 341.485C208.008 341.485 207.63 341.599 207.324 341.827C207.019 342.055 206.866 342.331 206.866 342.654H205.595C205.595 342.285 205.725 341.93 205.984 341.588C206.249 341.242 206.604 340.968 207.051 340.768C207.502 340.567 207.996 340.467 208.534 340.467C209.386 340.467 210.054 340.681 210.537 341.109C211.02 341.533 211.271 342.119 211.289 342.866V346.271C211.289 346.95 211.376 347.49 211.549 347.891V348H210.223ZM208.124 347.036C208.521 347.036 208.896 346.934 209.252 346.729C209.607 346.523 209.865 346.257 210.024 345.929V344.411H209.033C207.484 344.411 206.709 344.865 206.709 345.771C206.709 346.168 206.841 346.478 207.105 346.701C207.37 346.924 207.709 347.036 208.124 347.036ZM212.964 344.24C212.964 343.105 213.233 342.194 213.771 341.506C214.308 340.813 215.012 340.467 215.883 340.467C216.749 340.467 217.435 340.763 217.94 341.355V337.5H219.205V348H218.043L217.981 347.207C217.476 347.827 216.771 348.137 215.869 348.137C215.012 348.137 214.313 347.786 213.771 347.084C213.233 346.382 212.964 345.466 212.964 344.336V344.24ZM214.229 344.384C214.229 345.222 214.402 345.879 214.748 346.353C215.094 346.826 215.573 347.063 216.184 347.063C216.986 347.063 217.571 346.703 217.94 345.983V342.586C217.562 341.889 216.981 341.54 216.197 341.54C215.577 341.54 215.094 341.779 214.748 342.258C214.402 342.736 214.229 343.445 214.229 344.384ZM225.48 346.038C225.48 345.696 225.351 345.432 225.091 345.245C224.836 345.054 224.387 344.89 223.744 344.753C223.106 344.616 222.598 344.452 222.22 344.261C221.846 344.069 221.568 343.841 221.386 343.577C221.208 343.313 221.119 342.998 221.119 342.634C221.119 342.028 221.374 341.515 221.885 341.096C222.4 340.676 223.056 340.467 223.854 340.467C224.692 340.467 225.371 340.683 225.891 341.116C226.415 341.549 226.677 342.103 226.677 342.777H225.405C225.405 342.431 225.257 342.132 224.961 341.882C224.669 341.631 224.3 341.506 223.854 341.506C223.393 341.506 223.033 341.606 222.773 341.807C222.514 342.007 222.384 342.269 222.384 342.593C222.384 342.898 222.505 343.128 222.746 343.283C222.988 343.438 223.423 343.586 224.052 343.728C224.685 343.869 225.198 344.037 225.59 344.233C225.982 344.429 226.271 344.666 226.458 344.944C226.649 345.218 226.745 345.553 226.745 345.949C226.745 346.61 226.481 347.141 225.952 347.542C225.424 347.938 224.738 348.137 223.895 348.137C223.302 348.137 222.778 348.032 222.322 347.822C221.867 347.613 221.509 347.321 221.249 346.947C220.994 346.569 220.866 346.161 220.866 345.724H222.131C222.154 346.147 222.322 346.485 222.637 346.735C222.956 346.981 223.375 347.104 223.895 347.104C224.373 347.104 224.756 347.009 225.043 346.817C225.335 346.621 225.48 346.362 225.48 346.038Z" fill="#666666"/>
<defs>
<linearGradient id="paint0_linear" x1="145.734" y1="40.2785" x2="147" y2="106.354" gradientUnits="userSpaceOnUse">
<stop stop-color="#5ADFBF"/>
<stop offset="1" stop-color="#DF5AD2"/>
</linearGradient>
</defs>
</svg>
