<svg width="143" height="40" viewBox="0 0 143 40" fill="none" xmlns="http://www.w3.org/2000/svg">
<rect width="143" height="40" rx="8" fill="#AB49CE"/>
<path d="M47.0625 21.1484C47.026 21.9401 46.8125 22.6406 46.4219 23.25C46.0312 23.8542 45.4818 24.3229 44.7734 24.6562C44.0703 24.9896 43.2656 25.1562 42.3594 25.1562C40.8646 25.1562 39.6875 24.6693 38.8281 23.6953C37.9688 22.7214 37.5391 21.3464 37.5391 19.5703V19.0078C37.5391 17.8932 37.7318 16.9193 38.1172 16.0859C38.5078 15.2474 39.0677 14.6016 39.7969 14.1484C40.526 13.6901 41.3698 13.4609 42.3281 13.4609C43.7083 13.4609 44.8177 13.8255 45.6562 14.5547C46.4948 15.2786 46.9714 16.2786 47.0859 17.5547H44.3516C44.3307 16.862 44.1562 16.3646 43.8281 16.0625C43.5 15.7604 43 15.6094 42.3281 15.6094C41.6458 15.6094 41.1458 15.8646 40.8281 16.375C40.5104 16.8854 40.3438 17.7005 40.3281 18.8203V19.625C40.3281 20.8385 40.4792 21.7057 40.7812 22.2266C41.0885 22.7474 41.6146 23.0078 42.3594 23.0078C42.9896 23.0078 43.4714 22.8594 43.8047 22.5625C44.138 22.2656 44.3151 21.7943 44.3359 21.1484H47.0625ZM47.9062 20.6953C47.9062 19.8516 48.0703 19.1016 48.3984 18.4453C48.7266 17.7839 49.1979 17.276 49.8125 16.9219C50.4271 16.5677 51.1484 16.3906 51.9766 16.3906C53.2422 16.3906 54.2396 16.7839 54.9688 17.5703C55.6979 18.3516 56.0625 19.4167 56.0625 20.7656V20.8594C56.0625 22.1771 55.6953 23.224 54.9609 24C54.2318 24.7708 53.2422 25.1562 51.9922 25.1562C50.7891 25.1562 49.8229 24.7969 49.0938 24.0781C48.3646 23.3542 47.9714 22.375 47.9141 21.1406L47.9062 20.6953ZM50.5391 20.8594C50.5391 21.6406 50.6615 22.2135 50.9062 22.5781C51.151 22.9427 51.513 23.125 51.9922 23.125C52.9297 23.125 53.4089 22.4036 53.4297 20.9609V20.6953C53.4297 19.1797 52.9453 18.4219 51.9766 18.4219C51.0964 18.4219 50.6198 19.0755 50.5469 20.3828L50.5391 20.8594ZM59.6406 16.5469L59.7266 17.5391C60.3099 16.7734 61.1146 16.3906 62.1406 16.3906C63.0208 16.3906 63.6771 16.6536 64.1094 17.1797C64.5469 17.7057 64.7734 18.4974 64.7891 19.5547V25H62.1484V19.6641C62.1484 19.237 62.0625 18.9245 61.8906 18.7266C61.7188 18.5234 61.4062 18.4219 60.9531 18.4219C60.4375 18.4219 60.0547 18.625 59.8047 19.0312V25H57.1719V16.5469H59.6406ZM69.3203 14.4453V16.5469H70.7109V18.375H69.3203V22.2422C69.3203 22.5599 69.3776 22.7812 69.4922 22.9062C69.6068 23.0312 69.8333 23.0938 70.1719 23.0938C70.4323 23.0938 70.651 23.0781 70.8281 23.0469V24.9297C70.3542 25.0807 69.8594 25.1562 69.3438 25.1562C68.4375 25.1562 67.7682 24.9427 67.3359 24.5156C66.9036 24.0885 66.6875 23.4401 66.6875 22.5703V18.375H65.6094V16.5469H66.6875V14.4453H69.3203ZM76.8672 18.9297L76 18.8672C75.1719 18.8672 74.6406 19.1276 74.4062 19.6484V25H71.7734V16.5469H74.2422L74.3281 17.6328C74.7708 16.8047 75.388 16.3906 76.1797 16.3906C76.4609 16.3906 76.7057 16.4219 76.9141 16.4844L76.8672 18.9297ZM82.3438 25C82.25 24.8281 82.1667 24.5755 82.0938 24.2422C81.6094 24.8516 80.9323 25.1562 80.0625 25.1562C79.2656 25.1562 78.5885 24.9167 78.0312 24.4375C77.474 23.9531 77.1953 23.3464 77.1953 22.6172C77.1953 21.7005 77.5339 21.0078 78.2109 20.5391C78.888 20.0703 79.8724 19.8359 81.1641 19.8359H81.9766V19.3906C81.9766 18.6146 81.6406 18.2266 80.9688 18.2266C80.3438 18.2266 80.0312 18.5339 80.0312 19.1484H77.3984C77.3984 18.3307 77.7448 17.6667 78.4375 17.1562C79.1354 16.6458 80.0234 16.3906 81.1016 16.3906C82.1797 16.3906 83.0312 16.6536 83.6562 17.1797C84.2812 17.7057 84.6016 18.4271 84.6172 19.3438V23.0859C84.6276 23.862 84.7474 24.4557 84.9766 24.8672V25H82.3438ZM80.6953 23.2812C81.0234 23.2812 81.2943 23.2109 81.5078 23.0703C81.7266 22.9297 81.8828 22.7708 81.9766 22.5938V21.2422H81.2109C80.2943 21.2422 79.8359 21.6536 79.8359 22.4766C79.8359 22.7161 79.9167 22.9115 80.0781 23.0625C80.2396 23.2083 80.4453 23.2812 80.6953 23.2812ZM89.1484 14.4453V16.5469H90.5391V18.375H89.1484V22.2422C89.1484 22.5599 89.2057 22.7812 89.3203 22.9062C89.4349 23.0312 89.6615 23.0938 90 23.0938C90.2604 23.0938 90.4792 23.0781 90.6562 23.0469V24.9297C90.1823 25.0807 89.6875 25.1562 89.1719 25.1562C88.2656 25.1562 87.5964 24.9427 87.1641 24.5156C86.7318 24.0885 86.5156 23.4401 86.5156 22.5703V18.375H85.4375V16.5469H86.5156V14.4453H89.1484ZM96.3438 25C96.25 24.8281 96.1667 24.5755 96.0938 24.2422C95.6094 24.8516 94.9323 25.1562 94.0625 25.1562C93.2656 25.1562 92.5885 24.9167 92.0312 24.4375C91.474 23.9531 91.1953 23.3464 91.1953 22.6172C91.1953 21.7005 91.5339 21.0078 92.2109 20.5391C92.888 20.0703 93.8724 19.8359 95.1641 19.8359H95.9766V19.3906C95.9766 18.6146 95.6406 18.2266 94.9688 18.2266C94.3438 18.2266 94.0312 18.5339 94.0312 19.1484H91.3984C91.3984 18.3307 91.7448 17.6667 92.4375 17.1562C93.1354 16.6458 94.0234 16.3906 95.1016 16.3906C96.1797 16.3906 97.0312 16.6536 97.6562 17.1797C98.2812 17.7057 98.6016 18.4271 98.6172 19.3438V23.0859C98.6276 23.862 98.7474 24.4557 98.9766 24.8672V25H96.3438ZM94.6953 23.2812C95.0234 23.2812 95.2943 23.2109 95.5078 23.0703C95.7266 22.9297 95.8828 22.7708 95.9766 22.5938V21.2422H95.2109C94.2943 21.2422 93.8359 21.6536 93.8359 22.4766C93.8359 22.7161 93.9167 22.9115 94.0781 23.0625C94.2396 23.2083 94.4453 23.2812 94.6953 23.2812ZM105.195 18.9297L104.328 18.8672C103.5 18.8672 102.969 19.1276 102.734 19.6484V25H100.102V16.5469H102.57L102.656 17.6328C103.099 16.8047 103.716 16.3906 104.508 16.3906C104.789 16.3906 105.034 16.4219 105.242 16.4844L105.195 18.9297Z" fill="white"/>
</svg>
